G04 #@! TF.GenerationSoftware,KiCad,Pcbnew,(6.0.1)*
G04 #@! TF.CreationDate,2023-06-26T12:25:45-03:00*
G04 #@! TF.ProjectId,SRR-SCHEMATIC,5352522d-5343-4484-954d-415449432e6b,rev?*
G04 #@! TF.SameCoordinates,Original*
G04 #@! TF.FileFunction,Paste,Top*
G04 #@! TF.FilePolarity,Positive*
%FSLAX46Y46*%
G04 Gerber Fmt 4.6, Leading zero omitted, Abs format (unit mm)*
G04 Created by KiCad (PCBNEW (6.0.1)) date 2023-06-26 12:25:45*
%MOMM*%
%LPD*%
G01*
G04 APERTURE LIST*
G04 Aperture macros list*
%AMRoundRect*
0 Rectangle with rounded corners*
0 $1 Rounding radius*
0 $2 $3 $4 $5 $6 $7 $8 $9 X,Y pos of 4 corners*
0 Add a 4 corners polygon primitive as box body*
4,1,4,$2,$3,$4,$5,$6,$7,$8,$9,$2,$3,0*
0 Add four circle primitives for the rounded corners*
1,1,$1+$1,$2,$3*
1,1,$1+$1,$4,$5*
1,1,$1+$1,$6,$7*
1,1,$1+$1,$8,$9*
0 Add four rect primitives between the rounded corners*
20,1,$1+$1,$2,$3,$4,$5,0*
20,1,$1+$1,$4,$5,$6,$7,0*
20,1,$1+$1,$6,$7,$8,$9,0*
20,1,$1+$1,$8,$9,$2,$3,0*%
G04 Aperture macros list end*
%ADD10RoundRect,0.250000X0.262500X0.450000X-0.262500X0.450000X-0.262500X-0.450000X0.262500X-0.450000X0*%
%ADD11RoundRect,0.225000X-0.250000X0.225000X-0.250000X-0.225000X0.250000X-0.225000X0.250000X0.225000X0*%
%ADD12RoundRect,0.250000X-0.315000X-0.315000X0.315000X-0.315000X0.315000X0.315000X-0.315000X0.315000X0*%
%ADD13RoundRect,0.062500X-0.375000X-0.062500X0.375000X-0.062500X0.375000X0.062500X-0.375000X0.062500X0*%
%ADD14RoundRect,0.062500X-0.062500X-0.375000X0.062500X-0.375000X0.062500X0.375000X-0.062500X0.375000X0*%
%ADD15RoundRect,0.225000X0.250000X-0.225000X0.250000X0.225000X-0.250000X0.225000X-0.250000X-0.225000X0*%
%ADD16RoundRect,0.225000X0.225000X0.250000X-0.225000X0.250000X-0.225000X-0.250000X0.225000X-0.250000X0*%
%ADD17RoundRect,0.250000X0.250000X0.475000X-0.250000X0.475000X-0.250000X-0.475000X0.250000X-0.475000X0*%
%ADD18RoundRect,0.250000X-0.250000X-0.475000X0.250000X-0.475000X0.250000X0.475000X-0.250000X0.475000X0*%
%ADD19RoundRect,0.125000X-0.125000X-0.125000X0.125000X-0.125000X0.125000X0.125000X-0.125000X0.125000X0*%
%ADD20RoundRect,0.062500X-0.127500X-0.062500X0.127500X-0.062500X0.127500X0.062500X-0.127500X0.062500X0*%
%ADD21RoundRect,0.243750X0.243750X0.456250X-0.243750X0.456250X-0.243750X-0.456250X0.243750X-0.456250X0*%
%ADD22RoundRect,0.250000X-0.262500X-0.450000X0.262500X-0.450000X0.262500X0.450000X-0.262500X0.450000X0*%
%ADD23RoundRect,0.250000X0.450000X-0.262500X0.450000X0.262500X-0.450000X0.262500X-0.450000X-0.262500X0*%
%ADD24RoundRect,0.250000X0.475000X-0.250000X0.475000X0.250000X-0.475000X0.250000X-0.475000X-0.250000X0*%
%ADD25RoundRect,0.225000X-0.225000X-0.250000X0.225000X-0.250000X0.225000X0.250000X-0.225000X0.250000X0*%
%ADD26RoundRect,0.147500X-0.147500X-0.172500X0.147500X-0.172500X0.147500X0.172500X-0.147500X0.172500X0*%
%ADD27RoundRect,0.200000X0.275000X-0.200000X0.275000X0.200000X-0.275000X0.200000X-0.275000X-0.200000X0*%
%ADD28R,1.200000X1.400000*%
%ADD29R,1.000000X2.150000*%
%ADD30R,3.250000X2.150000*%
%ADD31RoundRect,0.250000X-0.450000X0.262500X-0.450000X-0.262500X0.450000X-0.262500X0.450000X0.262500X0*%
%ADD32RoundRect,0.250000X-0.475000X0.250000X-0.475000X-0.250000X0.475000X-0.250000X0.475000X0.250000X0*%
G04 APERTURE END LIST*
D10*
X162024700Y-76555600D03*
X160199700Y-76555600D03*
D11*
X165735000Y-91300000D03*
X165735000Y-92850000D03*
D12*
X165295000Y-82990000D03*
X161095000Y-84390000D03*
X161095000Y-85790000D03*
X162495000Y-82990000D03*
X163895000Y-85790000D03*
X161095000Y-87190000D03*
X162495000Y-87190000D03*
X165295000Y-84390000D03*
X165295000Y-87190000D03*
X162495000Y-84390000D03*
X163895000Y-82990000D03*
X165295000Y-85790000D03*
X163895000Y-84390000D03*
X161095000Y-82990000D03*
X163895000Y-87190000D03*
X162495000Y-85790000D03*
D13*
X159757500Y-82340000D03*
X159757500Y-82840000D03*
X159757500Y-83340000D03*
X159757500Y-83840000D03*
X159757500Y-84340000D03*
X159757500Y-84840000D03*
X159757500Y-85340000D03*
X159757500Y-85840000D03*
X159757500Y-86340000D03*
X159757500Y-86840000D03*
X159757500Y-87340000D03*
X159757500Y-87840000D03*
D14*
X160445000Y-88527500D03*
X160945000Y-88527500D03*
X161445000Y-88527500D03*
X161945000Y-88527500D03*
X162445000Y-88527500D03*
X162945000Y-88527500D03*
X163445000Y-88527500D03*
X163945000Y-88527500D03*
X164445000Y-88527500D03*
X164945000Y-88527500D03*
X165445000Y-88527500D03*
X165945000Y-88527500D03*
D13*
X166632500Y-87840000D03*
X166632500Y-87340000D03*
X166632500Y-86840000D03*
X166632500Y-86340000D03*
X166632500Y-85840000D03*
X166632500Y-85340000D03*
X166632500Y-84840000D03*
X166632500Y-84340000D03*
X166632500Y-83840000D03*
X166632500Y-83340000D03*
X166632500Y-82840000D03*
X166632500Y-82340000D03*
D14*
X165945000Y-81652500D03*
X165445000Y-81652500D03*
X164945000Y-81652500D03*
X164445000Y-81652500D03*
X163945000Y-81652500D03*
X163445000Y-81652500D03*
X162945000Y-81652500D03*
X162445000Y-81652500D03*
X161945000Y-81652500D03*
X161445000Y-81652500D03*
X160945000Y-81652500D03*
X160445000Y-81652500D03*
D15*
X198477500Y-67310000D03*
X198477500Y-65760000D03*
D16*
X144501200Y-74422000D03*
X142951200Y-74422000D03*
D17*
X133205000Y-86990000D03*
X131305000Y-86990000D03*
D18*
X127575000Y-87675000D03*
X129475000Y-87675000D03*
D19*
X200377500Y-86240000D03*
D20*
X200237500Y-86365000D03*
D19*
X201177500Y-86240000D03*
X201977500Y-86240000D03*
X202777500Y-86240000D03*
X203577500Y-86240000D03*
X203577500Y-87040000D03*
X203577500Y-87840000D03*
X202777500Y-87840000D03*
X201977500Y-87840000D03*
X201177500Y-87840000D03*
X200377500Y-87840000D03*
X200377500Y-87040000D03*
D17*
X122500000Y-96100000D03*
X120600000Y-96100000D03*
D21*
X122337500Y-88925000D03*
X120462500Y-88925000D03*
D15*
X195937500Y-67310000D03*
X195937500Y-65760000D03*
D22*
X200740000Y-91440000D03*
X202565000Y-91440000D03*
X195515000Y-91540000D03*
X197340000Y-91540000D03*
D20*
X201182500Y-66000000D03*
D19*
X201322500Y-65875000D03*
X202122500Y-65875000D03*
X202922500Y-65875000D03*
X203722500Y-65875000D03*
X204522500Y-65875000D03*
X204522500Y-66675000D03*
X204522500Y-67475000D03*
X203722500Y-67475000D03*
X202922500Y-67475000D03*
X202122500Y-67475000D03*
X201322500Y-67475000D03*
X201322500Y-66675000D03*
D23*
X206177500Y-87852500D03*
X206177500Y-86027500D03*
D24*
X156210000Y-80960000D03*
X156210000Y-79060000D03*
D22*
X139422500Y-87630000D03*
X141247500Y-87630000D03*
X201375000Y-71755000D03*
X203200000Y-71755000D03*
D25*
X127670000Y-92070000D03*
X129220000Y-92070000D03*
D26*
X120165000Y-77465000D03*
X121135000Y-77465000D03*
D16*
X150000000Y-88265000D03*
X148450000Y-88265000D03*
D23*
X207367500Y-67587500D03*
X207367500Y-65762500D03*
D22*
X195660000Y-71755000D03*
X197485000Y-71755000D03*
D27*
X155575000Y-89090000D03*
X155575000Y-87440000D03*
D28*
X148425000Y-83355000D03*
X148425000Y-85555000D03*
X150025000Y-85555000D03*
X150025000Y-83355000D03*
D10*
X207490000Y-91465000D03*
X205665000Y-91465000D03*
D15*
X197802500Y-87590000D03*
X197802500Y-86040000D03*
D17*
X170495000Y-91100000D03*
X168595000Y-91100000D03*
D16*
X170350000Y-94375000D03*
X168800000Y-94375000D03*
D29*
X135035000Y-83545000D03*
X137335000Y-83545000D03*
X139635000Y-83545000D03*
D30*
X137335000Y-77745000D03*
D23*
X145389600Y-78710800D03*
X145389600Y-76885800D03*
D16*
X136515000Y-96510000D03*
X134965000Y-96510000D03*
D22*
X148492200Y-74269600D03*
X150317200Y-74269600D03*
D10*
X208280000Y-71755000D03*
X206455000Y-71755000D03*
D25*
X148450000Y-79375000D03*
X150000000Y-79375000D03*
D24*
X153100000Y-78355000D03*
X153100000Y-76455000D03*
D31*
X134160000Y-89887500D03*
X134160000Y-91712500D03*
D21*
X122312500Y-92575000D03*
X120437500Y-92575000D03*
D25*
X138290000Y-74295000D03*
X139840000Y-74295000D03*
D29*
X125335000Y-83545000D03*
X127635000Y-83545000D03*
X129935000Y-83545000D03*
D30*
X127635000Y-77745000D03*
D15*
X154940000Y-85230000D03*
X154940000Y-83680000D03*
D32*
X171653200Y-83301800D03*
X171653200Y-85201800D03*
D15*
X195277500Y-87615000D03*
X195277500Y-86065000D03*
M02*
