M48
; DRILL file {KiCad (6.0.1)} date Mon Jun 26 14:00:33 2023
; FORMAT={-:-/ absolute / metric / decimal}
; #@! TF.CreationDate,2023-06-26T14:00:33-03:00
; #@! TF.GenerationSoftware,Kicad,Pcbnew,(6.0.1)
; #@! TF.FileFunction,Plated,1,2,PTH
FMAT,2
METRIC
; #@! TA.AperFunction,Plated,PTH,ViaDrill
T1C0.254
; #@! TA.AperFunction,Plated,PTH,ComponentDrill
T2C0.700
; #@! TA.AperFunction,Plated,PTH,ComponentDrill
T3C0.900
; #@! TA.AperFunction,Plated,PTH,ComponentDrill
T4C1.000
; #@! TA.AperFunction,Plated,PTH,ComponentDrill
T5C1.100
; #@! TA.AperFunction,Plated,PTH,ComponentDrill
T6C1.300
%
G90
G05
T1
X107.5Y-72.0
X111.25Y-92.25
X116.75Y-92.5
X119.75Y-72.25
X125.0Y-87.5
X125.25Y-93.75
X125.5Y-80.5
X127.5Y-72.25
X129.5Y-80.5
X132.5Y-84.5
X133.75Y-72.25
X135.5Y-80.5
X136.474Y-88.316
X139.25Y-80.5
X139.395Y-85.344
X139.75Y-95.75
X141.75Y-77.25
X141.75Y-80.25
X144.551Y-73.152
X145.5Y-83.25
X145.5Y-86.0
X146.685Y-73.939
X146.75Y-80.775
X146.75Y-87.75
X147.75Y-76.75
X148.0Y-94.75
X150.775Y-76.35
X151.6Y-79.475
X152.0Y-86.0
X152.781Y-92.024
X153.0Y-86.0
X155.905Y-85.217
X157.25Y-93.5
X157.25Y-95.5
X157.75Y-70.0
X157.925Y-85.51
X158.656Y-86.282
X160.25Y-93.5
X160.25Y-95.5
X160.731Y-80.695
X161.5Y-83.5
X161.75Y-86.5
X163.25Y-85.125
X163.887Y-90.383
X164.288Y-80.162
X164.812Y-86.688
X165.811Y-77.572
X165.94Y-80.62
X168.25Y-85.293
X168.275Y-83.058
X171.25Y-80.925
X171.425Y-87.675
X171.925Y-78.614
X172.0Y-70.0
X172.872Y-92.964
X174.25Y-74.75
X179.0Y-75.0
X179.0Y-82.5
X184.0Y-84.0
X184.5Y-90.75
X186.25Y-87.25
X188.25Y-90.75
X188.5Y-84.0
X196.5Y-94.75
X197.1Y-65.775
X198.45Y-90.627
X198.725Y-73.825
X198.755Y-70.79
X199.0Y-79.25
X200.425Y-87.025
X201.168Y-89.179
X201.35Y-66.7
X202.133Y-68.809
X202.15Y-65.85
X202.8Y-86.25
X203.575Y-87.025
X204.292Y-94.031
X204.525Y-66.675
X204.625Y-85.45
X208.675Y-86.5
X210.875Y-71.4
X211.0Y-67.75
X211.0Y-88.75
X211.0Y-92.25
X211.25Y-79.5
T2
X145.4Y-94.615
X147.94Y-97.155
X150.48Y-94.615
T3
X128.9Y-96.52
X131.44Y-96.52
X137.97Y-92.07
X140.51Y-92.07
T4
X138.275Y-67.475
X140.275Y-67.475
X142.275Y-67.475
X144.275Y-67.475
X146.275Y-67.475
X148.275Y-67.475
X150.275Y-67.475
X152.275Y-67.475
X159.457Y-73.634
X161.997Y-73.634
X164.537Y-73.634
X167.077Y-73.634
X169.617Y-73.634
X179.426Y-86.97
X179.426Y-89.51
X179.426Y-92.05
X179.426Y-94.59
X179.426Y-97.13
X185.623Y-70.104
X185.623Y-72.644
X185.623Y-75.184
X185.623Y-77.724
X185.623Y-80.264
X200.355Y-96.063
X200.558Y-76.403
X202.895Y-96.063
X203.098Y-76.403
X205.435Y-96.063
X205.638Y-76.403
X207.975Y-96.063
X208.178Y-76.403
X210.515Y-96.063
X210.718Y-76.403
T5
X155.5Y-92.365
X155.5Y-96.865
X162.0Y-92.365
X162.0Y-96.865
T6
X112.695Y-80.705
X112.695Y-85.785
T4
X106.725Y-46.525G85X106.725Y-48.125
G05
X106.725Y-55.025G85X106.725Y-56.625
G05
T0
M30
