G04 #@! TF.GenerationSoftware,KiCad,Pcbnew,(6.0.1)*
G04 #@! TF.CreationDate,2023-06-26T12:25:45-03:00*
G04 #@! TF.ProjectId,SRR-SCHEMATIC,5352522d-5343-4484-954d-415449432e6b,rev?*
G04 #@! TF.SameCoordinates,Original*
G04 #@! TF.FileFunction,Legend,Top*
G04 #@! TF.FilePolarity,Positive*
%FSLAX46Y46*%
G04 Gerber Fmt 4.6, Leading zero omitted, Abs format (unit mm)*
G04 Created by KiCad (PCBNEW (6.0.1)) date 2023-06-26 12:25:45*
%MOMM*%
%LPD*%
G01*
G04 APERTURE LIST*
G04 Aperture macros list*
%AMRoundRect*
0 Rectangle with rounded corners*
0 $1 Rounding radius*
0 $2 $3 $4 $5 $6 $7 $8 $9 X,Y pos of 4 corners*
0 Add a 4 corners polygon primitive as box body*
4,1,4,$2,$3,$4,$5,$6,$7,$8,$9,$2,$3,0*
0 Add four circle primitives for the rounded corners*
1,1,$1+$1,$2,$3*
1,1,$1+$1,$4,$5*
1,1,$1+$1,$6,$7*
1,1,$1+$1,$8,$9*
0 Add four rect primitives between the rounded corners*
20,1,$1+$1,$2,$3,$4,$5,0*
20,1,$1+$1,$4,$5,$6,$7,0*
20,1,$1+$1,$6,$7,$8,$9,0*
20,1,$1+$1,$8,$9,$2,$3,0*%
G04 Aperture macros list end*
%ADD10C,0.076200*%
%ADD11C,0.150000*%
%ADD12C,0.120000*%
%ADD13C,0.203200*%
%ADD14C,0.127000*%
%ADD15RoundRect,0.250000X0.262500X0.450000X-0.262500X0.450000X-0.262500X-0.450000X0.262500X-0.450000X0*%
%ADD16R,1.700000X1.700000*%
%ADD17O,1.700000X1.700000*%
%ADD18C,2.200000*%
%ADD19R,2.600000X2.600000*%
%ADD20C,2.600000*%
%ADD21RoundRect,0.225000X-0.250000X0.225000X-0.250000X-0.225000X0.250000X-0.225000X0.250000X0.225000X0*%
%ADD22RoundRect,0.062500X-0.375000X-0.062500X0.375000X-0.062500X0.375000X0.062500X-0.375000X0.062500X0*%
%ADD23RoundRect,0.062500X-0.062500X-0.375000X0.062500X-0.375000X0.062500X0.375000X-0.062500X0.375000X0*%
%ADD24R,5.600000X5.600000*%
%ADD25RoundRect,0.225000X0.250000X-0.225000X0.250000X0.225000X-0.250000X0.225000X-0.250000X-0.225000X0*%
%ADD26RoundRect,0.225000X0.225000X0.250000X-0.225000X0.250000X-0.225000X-0.250000X0.225000X-0.250000X0*%
%ADD27RoundRect,0.250000X0.250000X0.475000X-0.250000X0.475000X-0.250000X-0.475000X0.250000X-0.475000X0*%
%ADD28RoundRect,0.250000X-0.250000X-0.475000X0.250000X-0.475000X0.250000X0.475000X-0.250000X0.475000X0*%
%ADD29RoundRect,0.125000X-0.125000X-0.125000X0.125000X-0.125000X0.125000X0.125000X-0.125000X0.125000X0*%
%ADD30RoundRect,0.062500X-0.127500X-0.062500X0.127500X-0.062500X0.127500X0.062500X-0.127500X0.062500X0*%
%ADD31C,2.500000*%
%ADD32R,1.600000X1.600000*%
%ADD33C,1.600000*%
%ADD34O,1.800000X3.400000*%
%ADD35RoundRect,0.243750X0.243750X0.456250X-0.243750X0.456250X-0.243750X-0.456250X0.243750X-0.456250X0*%
%ADD36R,1.800000X1.800000*%
%ADD37C,1.800000*%
%ADD38C,3.200000*%
%ADD39RoundRect,0.250000X-0.262500X-0.450000X0.262500X-0.450000X0.262500X0.450000X-0.262500X0.450000X0*%
%ADD40C,2.000000*%
%ADD41RoundRect,0.250000X0.450000X-0.262500X0.450000X0.262500X-0.450000X0.262500X-0.450000X-0.262500X0*%
%ADD42RoundRect,0.250000X0.475000X-0.250000X0.475000X0.250000X-0.475000X0.250000X-0.475000X-0.250000X0*%
%ADD43RoundRect,0.225000X-0.225000X-0.250000X0.225000X-0.250000X0.225000X0.250000X-0.225000X0.250000X0*%
%ADD44RoundRect,0.147500X-0.147500X-0.172500X0.147500X-0.172500X0.147500X0.172500X-0.147500X0.172500X0*%
%ADD45RoundRect,0.200000X0.275000X-0.200000X0.275000X0.200000X-0.275000X0.200000X-0.275000X-0.200000X0*%
%ADD46R,1.200000X1.400000*%
%ADD47R,1.000000X2.150000*%
%ADD48R,3.250000X2.150000*%
%ADD49RoundRect,0.250000X-0.450000X0.262500X-0.450000X-0.262500X0.450000X-0.262500X0.450000X0.262500X0*%
%ADD50C,1.750000*%
%ADD51RoundRect,0.250000X-0.475000X0.250000X-0.475000X-0.250000X0.475000X-0.250000X0.475000X0.250000X0*%
G04 APERTURE END LIST*
D10*
X159184706Y-71309500D02*
X159148420Y-71291357D01*
X159093992Y-71291357D01*
X159039563Y-71309500D01*
X159003277Y-71345785D01*
X158985134Y-71382071D01*
X158966992Y-71454642D01*
X158966992Y-71509071D01*
X158985134Y-71581642D01*
X159003277Y-71617928D01*
X159039563Y-71654214D01*
X159093992Y-71672357D01*
X159130277Y-71672357D01*
X159184706Y-71654214D01*
X159202849Y-71636071D01*
X159202849Y-71509071D01*
X159130277Y-71509071D01*
X159366134Y-71672357D02*
X159366134Y-71291357D01*
X159583849Y-71672357D01*
X159583849Y-71291357D01*
X159765277Y-71672357D02*
X159765277Y-71291357D01*
X159855992Y-71291357D01*
X159910420Y-71309500D01*
X159946706Y-71345785D01*
X159964849Y-71382071D01*
X159982992Y-71454642D01*
X159982992Y-71509071D01*
X159964849Y-71581642D01*
X159946706Y-71617928D01*
X159910420Y-71654214D01*
X159855992Y-71672357D01*
X159765277Y-71672357D01*
X210266999Y-78541366D02*
X210393999Y-78922366D01*
X210520999Y-78541366D01*
X210865713Y-78886080D02*
X210847570Y-78904223D01*
X210793141Y-78922366D01*
X210756856Y-78922366D01*
X210702427Y-78904223D01*
X210666141Y-78867937D01*
X210647999Y-78831651D01*
X210629856Y-78759080D01*
X210629856Y-78704651D01*
X210647999Y-78632080D01*
X210666141Y-78595794D01*
X210702427Y-78559509D01*
X210756856Y-78541366D01*
X210793141Y-78541366D01*
X210847570Y-78559509D01*
X210865713Y-78577651D01*
X211246713Y-78886080D02*
X211228570Y-78904223D01*
X211174141Y-78922366D01*
X211137856Y-78922366D01*
X211083427Y-78904223D01*
X211047141Y-78867937D01*
X211028999Y-78831651D01*
X211010856Y-78759080D01*
X211010856Y-78704651D01*
X211028999Y-78632080D01*
X211047141Y-78595794D01*
X211083427Y-78559509D01*
X211137856Y-78541366D01*
X211174141Y-78541366D01*
X211228570Y-78559509D01*
X211246713Y-78577651D01*
X209991992Y-98041361D02*
X210118992Y-98422361D01*
X210245992Y-98041361D01*
X210590706Y-98386075D02*
X210572563Y-98404218D01*
X210518134Y-98422361D01*
X210481849Y-98422361D01*
X210427420Y-98404218D01*
X210391134Y-98367932D01*
X210372992Y-98331646D01*
X210354849Y-98259075D01*
X210354849Y-98204646D01*
X210372992Y-98132075D01*
X210391134Y-98095789D01*
X210427420Y-98059504D01*
X210481849Y-98041361D01*
X210518134Y-98041361D01*
X210572563Y-98059504D01*
X210590706Y-98077646D01*
X210971706Y-98386075D02*
X210953563Y-98404218D01*
X210899134Y-98422361D01*
X210862849Y-98422361D01*
X210808420Y-98404218D01*
X210772134Y-98367932D01*
X210753992Y-98331646D01*
X210735849Y-98259075D01*
X210735849Y-98204646D01*
X210753992Y-98132075D01*
X210772134Y-98095789D01*
X210808420Y-98059504D01*
X210862849Y-98041361D01*
X210899134Y-98041361D01*
X210953563Y-98059504D01*
X210971706Y-98077646D01*
X181541361Y-97758000D02*
X181922361Y-97631000D01*
X181541361Y-97504000D01*
X181886075Y-97159285D02*
X181904218Y-97177428D01*
X181922361Y-97231857D01*
X181922361Y-97268142D01*
X181904218Y-97322571D01*
X181867932Y-97358857D01*
X181831646Y-97377000D01*
X181759075Y-97395142D01*
X181704646Y-97395142D01*
X181632075Y-97377000D01*
X181595789Y-97358857D01*
X181559504Y-97322571D01*
X181541361Y-97268142D01*
X181541361Y-97231857D01*
X181559504Y-97177428D01*
X181577646Y-97159285D01*
X181886075Y-96778285D02*
X181904218Y-96796428D01*
X181922361Y-96850857D01*
X181922361Y-96887142D01*
X181904218Y-96941571D01*
X181867932Y-96977857D01*
X181831646Y-96996000D01*
X181759075Y-97014142D01*
X181704646Y-97014142D01*
X181632075Y-96996000D01*
X181595789Y-96977857D01*
X181559504Y-96941571D01*
X181541361Y-96887142D01*
X181541361Y-96850857D01*
X181559504Y-96796428D01*
X181577646Y-96778285D01*
X205046428Y-98404214D02*
X205100857Y-98422357D01*
X205191571Y-98422357D01*
X205227857Y-98404214D01*
X205246000Y-98386071D01*
X205264142Y-98349785D01*
X205264142Y-98313500D01*
X205246000Y-98277214D01*
X205227857Y-98259071D01*
X205191571Y-98240928D01*
X205119000Y-98222785D01*
X205082714Y-98204642D01*
X205064571Y-98186500D01*
X205046428Y-98150214D01*
X205046428Y-98113928D01*
X205064571Y-98077642D01*
X205082714Y-98059500D01*
X205119000Y-98041357D01*
X205209714Y-98041357D01*
X205264142Y-98059500D01*
X205645142Y-98386071D02*
X205627000Y-98404214D01*
X205572571Y-98422357D01*
X205536285Y-98422357D01*
X205481857Y-98404214D01*
X205445571Y-98367928D01*
X205427428Y-98331642D01*
X205409285Y-98259071D01*
X205409285Y-98204642D01*
X205427428Y-98132071D01*
X205445571Y-98095785D01*
X205481857Y-98059500D01*
X205536285Y-98041357D01*
X205572571Y-98041357D01*
X205627000Y-98059500D01*
X205645142Y-98077642D01*
X205989857Y-98422357D02*
X205808428Y-98422357D01*
X205808428Y-98041357D01*
X168991991Y-71291366D02*
X169118991Y-71672366D01*
X169245991Y-71291366D01*
X169590705Y-71636080D02*
X169572562Y-71654223D01*
X169518133Y-71672366D01*
X169481848Y-71672366D01*
X169427419Y-71654223D01*
X169391133Y-71617937D01*
X169372991Y-71581651D01*
X169354848Y-71509080D01*
X169354848Y-71454651D01*
X169372991Y-71382080D01*
X169391133Y-71345794D01*
X169427419Y-71309509D01*
X169481848Y-71291366D01*
X169518133Y-71291366D01*
X169572562Y-71309509D01*
X169590705Y-71327651D01*
X169971705Y-71636080D02*
X169953562Y-71654223D01*
X169899133Y-71672366D01*
X169862848Y-71672366D01*
X169808419Y-71654223D01*
X169772133Y-71617937D01*
X169753991Y-71581651D01*
X169735848Y-71509080D01*
X169735848Y-71454651D01*
X169753991Y-71382080D01*
X169772133Y-71345794D01*
X169808419Y-71309509D01*
X169862848Y-71291366D01*
X169899133Y-71291366D01*
X169953562Y-71309509D01*
X169971705Y-71327651D01*
X188154219Y-75962643D02*
X188172362Y-75908215D01*
X188172362Y-75817501D01*
X188154219Y-75781215D01*
X188136076Y-75763072D01*
X188099790Y-75744929D01*
X188063505Y-75744929D01*
X188027219Y-75763072D01*
X188009076Y-75781215D01*
X187990933Y-75817501D01*
X187972790Y-75890072D01*
X187954647Y-75926358D01*
X187936505Y-75944501D01*
X187900219Y-75962643D01*
X187863933Y-75962643D01*
X187827647Y-75944501D01*
X187809505Y-75926358D01*
X187791362Y-75890072D01*
X187791362Y-75799358D01*
X187809505Y-75744929D01*
X188172362Y-75581643D02*
X187791362Y-75581643D01*
X187791362Y-75490929D01*
X187809505Y-75436501D01*
X187845790Y-75400215D01*
X187882076Y-75382072D01*
X187954647Y-75363929D01*
X188009076Y-75363929D01*
X188081647Y-75382072D01*
X188117933Y-75400215D01*
X188154219Y-75436501D01*
X188172362Y-75490929D01*
X188172362Y-75581643D01*
X188063505Y-75218786D02*
X188063505Y-75037358D01*
X188172362Y-75255072D02*
X187791362Y-75128072D01*
X188172362Y-75001072D01*
X161709714Y-71309500D02*
X161673428Y-71291357D01*
X161619000Y-71291357D01*
X161564571Y-71309500D01*
X161528285Y-71345785D01*
X161510142Y-71382071D01*
X161492000Y-71454642D01*
X161492000Y-71509071D01*
X161510142Y-71581642D01*
X161528285Y-71617928D01*
X161564571Y-71654214D01*
X161619000Y-71672357D01*
X161655285Y-71672357D01*
X161709714Y-71654214D01*
X161727857Y-71636071D01*
X161727857Y-71509071D01*
X161655285Y-71509071D01*
X161891142Y-71672357D02*
X161891142Y-71291357D01*
X162108857Y-71672357D01*
X162108857Y-71291357D01*
X162290285Y-71672357D02*
X162290285Y-71291357D01*
X162381000Y-71291357D01*
X162435428Y-71309500D01*
X162471714Y-71345785D01*
X162489857Y-71382071D01*
X162508000Y-71454642D01*
X162508000Y-71509071D01*
X162489857Y-71581642D01*
X162471714Y-71617928D01*
X162435428Y-71654214D01*
X162381000Y-71672357D01*
X162290285Y-71672357D01*
X202796428Y-78904219D02*
X202850857Y-78922362D01*
X202941571Y-78922362D01*
X202977857Y-78904219D01*
X202996000Y-78886076D01*
X203014142Y-78849790D01*
X203014142Y-78813505D01*
X202996000Y-78777219D01*
X202977857Y-78759076D01*
X202941571Y-78740933D01*
X202869000Y-78722790D01*
X202832714Y-78704647D01*
X202814571Y-78686505D01*
X202796428Y-78650219D01*
X202796428Y-78613933D01*
X202814571Y-78577647D01*
X202832714Y-78559505D01*
X202869000Y-78541362D01*
X202959714Y-78541362D01*
X203014142Y-78559505D01*
X203395142Y-78886076D02*
X203377000Y-78904219D01*
X203322571Y-78922362D01*
X203286285Y-78922362D01*
X203231857Y-78904219D01*
X203195571Y-78867933D01*
X203177428Y-78831647D01*
X203159285Y-78759076D01*
X203159285Y-78704647D01*
X203177428Y-78632076D01*
X203195571Y-78595790D01*
X203231857Y-78559505D01*
X203286285Y-78541362D01*
X203322571Y-78541362D01*
X203377000Y-78559505D01*
X203395142Y-78577647D01*
X203739857Y-78922362D02*
X203558428Y-78922362D01*
X203558428Y-78541362D01*
X202537357Y-98404214D02*
X202591785Y-98422357D01*
X202682500Y-98422357D01*
X202718785Y-98404214D01*
X202736928Y-98386071D01*
X202755071Y-98349785D01*
X202755071Y-98313500D01*
X202736928Y-98277214D01*
X202718785Y-98259071D01*
X202682500Y-98240928D01*
X202609928Y-98222785D01*
X202573642Y-98204642D01*
X202555500Y-98186500D01*
X202537357Y-98150214D01*
X202537357Y-98113928D01*
X202555500Y-98077642D01*
X202573642Y-98059500D01*
X202609928Y-98041357D01*
X202700642Y-98041357D01*
X202755071Y-98059500D01*
X202918357Y-98422357D02*
X202918357Y-98041357D01*
X203009071Y-98041357D01*
X203063500Y-98059500D01*
X203099785Y-98095785D01*
X203117928Y-98132071D01*
X203136071Y-98204642D01*
X203136071Y-98259071D01*
X203117928Y-98331642D01*
X203099785Y-98367928D01*
X203063500Y-98404214D01*
X203009071Y-98422357D01*
X202918357Y-98422357D01*
X203281214Y-98313500D02*
X203462642Y-98313500D01*
X203244928Y-98422357D02*
X203371928Y-98041357D01*
X203498928Y-98422357D01*
X163638215Y-71654223D02*
X163692643Y-71672366D01*
X163783358Y-71672366D01*
X163819643Y-71654223D01*
X163837786Y-71636080D01*
X163855929Y-71599794D01*
X163855929Y-71563509D01*
X163837786Y-71527223D01*
X163819643Y-71509080D01*
X163783358Y-71490937D01*
X163710786Y-71472794D01*
X163674501Y-71454651D01*
X163656358Y-71436509D01*
X163638215Y-71400223D01*
X163638215Y-71363937D01*
X163656358Y-71327651D01*
X163674501Y-71309509D01*
X163710786Y-71291366D01*
X163801501Y-71291366D01*
X163855929Y-71309509D01*
X163982929Y-71291366D02*
X164073643Y-71672366D01*
X164146215Y-71400223D01*
X164218786Y-71672366D01*
X164309501Y-71291366D01*
X164672358Y-71636080D02*
X164654215Y-71654223D01*
X164599786Y-71672366D01*
X164563501Y-71672366D01*
X164509072Y-71654223D01*
X164472786Y-71617937D01*
X164454643Y-71581651D01*
X164436501Y-71509080D01*
X164436501Y-71454651D01*
X164454643Y-71382080D01*
X164472786Y-71345794D01*
X164509072Y-71309509D01*
X164563501Y-71291366D01*
X164599786Y-71291366D01*
X164654215Y-71309509D01*
X164672358Y-71327651D01*
X165017072Y-71672366D02*
X164835643Y-71672366D01*
X164835643Y-71291366D01*
X165144072Y-71672366D02*
X165144072Y-71291366D01*
X165361786Y-71672366D02*
X165198501Y-71454651D01*
X165361786Y-71291366D02*
X165144072Y-71509080D01*
X207618995Y-98059500D02*
X207582709Y-98041357D01*
X207528280Y-98041357D01*
X207473852Y-98059500D01*
X207437566Y-98095785D01*
X207419423Y-98132071D01*
X207401280Y-98204642D01*
X207401280Y-98259071D01*
X207419423Y-98331642D01*
X207437566Y-98367928D01*
X207473852Y-98404214D01*
X207528280Y-98422357D01*
X207564566Y-98422357D01*
X207618995Y-98404214D01*
X207637137Y-98386071D01*
X207637137Y-98259071D01*
X207564566Y-98259071D01*
X207800423Y-98422357D02*
X207800423Y-98041357D01*
X207945566Y-98041357D01*
X207981852Y-98059500D01*
X207999995Y-98077642D01*
X208018137Y-98113928D01*
X208018137Y-98168357D01*
X207999995Y-98204642D01*
X207981852Y-98222785D01*
X207945566Y-98240928D01*
X207800423Y-98240928D01*
X208181423Y-98422357D02*
X208181423Y-98041357D01*
X208435423Y-98041357D02*
X208507995Y-98041357D01*
X208544280Y-98059500D01*
X208580566Y-98095785D01*
X208598709Y-98168357D01*
X208598709Y-98295357D01*
X208580566Y-98367928D01*
X208544280Y-98404214D01*
X208507995Y-98422357D01*
X208435423Y-98422357D01*
X208399137Y-98404214D01*
X208362852Y-98367928D01*
X208344709Y-98295357D01*
X208344709Y-98168357D01*
X208362852Y-98095785D01*
X208399137Y-98059500D01*
X208435423Y-98041357D01*
X187809505Y-73381006D02*
X187791362Y-73417291D01*
X187791362Y-73471720D01*
X187809505Y-73526148D01*
X187845790Y-73562434D01*
X187882076Y-73580577D01*
X187954647Y-73598720D01*
X188009076Y-73598720D01*
X188081647Y-73580577D01*
X188117933Y-73562434D01*
X188154219Y-73526148D01*
X188172362Y-73471720D01*
X188172362Y-73435434D01*
X188154219Y-73381006D01*
X188136076Y-73362863D01*
X188009076Y-73362863D01*
X188009076Y-73435434D01*
X188172362Y-73199577D02*
X187791362Y-73199577D01*
X187791362Y-73054434D01*
X187809505Y-73018148D01*
X187827647Y-73000006D01*
X187863933Y-72981863D01*
X187918362Y-72981863D01*
X187954647Y-73000006D01*
X187972790Y-73018148D01*
X187990933Y-73054434D01*
X187990933Y-73199577D01*
X188172362Y-72818577D02*
X187791362Y-72818577D01*
X187791362Y-72564577D02*
X187791362Y-72492006D01*
X187809505Y-72455720D01*
X187845790Y-72419434D01*
X187918362Y-72401291D01*
X188045362Y-72401291D01*
X188117933Y-72419434D01*
X188154219Y-72455720D01*
X188172362Y-72492006D01*
X188172362Y-72564577D01*
X188154219Y-72600863D01*
X188117933Y-72637148D01*
X188045362Y-72655291D01*
X187918362Y-72655291D01*
X187845790Y-72637148D01*
X187809505Y-72600863D01*
X187791362Y-72564577D01*
X200459714Y-78559500D02*
X200423428Y-78541357D01*
X200369000Y-78541357D01*
X200314571Y-78559500D01*
X200278285Y-78595785D01*
X200260142Y-78632071D01*
X200242000Y-78704642D01*
X200242000Y-78759071D01*
X200260142Y-78831642D01*
X200278285Y-78867928D01*
X200314571Y-78904214D01*
X200369000Y-78922357D01*
X200405285Y-78922357D01*
X200459714Y-78904214D01*
X200477857Y-78886071D01*
X200477857Y-78759071D01*
X200405285Y-78759071D01*
X200641142Y-78922357D02*
X200641142Y-78541357D01*
X200858857Y-78922357D01*
X200858857Y-78541357D01*
X201040285Y-78922357D02*
X201040285Y-78541357D01*
X201131000Y-78541357D01*
X201185428Y-78559500D01*
X201221714Y-78595785D01*
X201239857Y-78632071D01*
X201258000Y-78704642D01*
X201258000Y-78759071D01*
X201239857Y-78831642D01*
X201221714Y-78867928D01*
X201185428Y-78904214D01*
X201131000Y-78922357D01*
X201040285Y-78922357D01*
X205287357Y-78904214D02*
X205341785Y-78922357D01*
X205432500Y-78922357D01*
X205468785Y-78904214D01*
X205486928Y-78886071D01*
X205505071Y-78849785D01*
X205505071Y-78813500D01*
X205486928Y-78777214D01*
X205468785Y-78759071D01*
X205432500Y-78740928D01*
X205359928Y-78722785D01*
X205323642Y-78704642D01*
X205305500Y-78686500D01*
X205287357Y-78650214D01*
X205287357Y-78613928D01*
X205305500Y-78577642D01*
X205323642Y-78559500D01*
X205359928Y-78541357D01*
X205450642Y-78541357D01*
X205505071Y-78559500D01*
X205668357Y-78922357D02*
X205668357Y-78541357D01*
X205759071Y-78541357D01*
X205813500Y-78559500D01*
X205849785Y-78595785D01*
X205867928Y-78632071D01*
X205886071Y-78704642D01*
X205886071Y-78759071D01*
X205867928Y-78831642D01*
X205849785Y-78867928D01*
X205813500Y-78904214D01*
X205759071Y-78922357D01*
X205668357Y-78922357D01*
X206031214Y-78813500D02*
X206212642Y-78813500D01*
X205994928Y-78922357D02*
X206121928Y-78541357D01*
X206248928Y-78922357D01*
X200184707Y-98059495D02*
X200148421Y-98041352D01*
X200093993Y-98041352D01*
X200039564Y-98059495D01*
X200003278Y-98095780D01*
X199985135Y-98132066D01*
X199966993Y-98204637D01*
X199966993Y-98259066D01*
X199985135Y-98331637D01*
X200003278Y-98367923D01*
X200039564Y-98404209D01*
X200093993Y-98422352D01*
X200130278Y-98422352D01*
X200184707Y-98404209D01*
X200202850Y-98386066D01*
X200202850Y-98259066D01*
X200130278Y-98259066D01*
X200366135Y-98422352D02*
X200366135Y-98041352D01*
X200583850Y-98422352D01*
X200583850Y-98041352D01*
X200765278Y-98422352D02*
X200765278Y-98041352D01*
X200855993Y-98041352D01*
X200910421Y-98059495D01*
X200946707Y-98095780D01*
X200964850Y-98132066D01*
X200982993Y-98204637D01*
X200982993Y-98259066D01*
X200964850Y-98331637D01*
X200946707Y-98367923D01*
X200910421Y-98404209D01*
X200855993Y-98422352D01*
X200765278Y-98422352D01*
X181559500Y-87290285D02*
X181541357Y-87326571D01*
X181541357Y-87381000D01*
X181559500Y-87435428D01*
X181595785Y-87471714D01*
X181632071Y-87489857D01*
X181704642Y-87508000D01*
X181759071Y-87508000D01*
X181831642Y-87489857D01*
X181867928Y-87471714D01*
X181904214Y-87435428D01*
X181922357Y-87381000D01*
X181922357Y-87344714D01*
X181904214Y-87290285D01*
X181886071Y-87272142D01*
X181759071Y-87272142D01*
X181759071Y-87344714D01*
X181922357Y-87108857D02*
X181541357Y-87108857D01*
X181922357Y-86891142D01*
X181541357Y-86891142D01*
X181922357Y-86709714D02*
X181541357Y-86709714D01*
X181541357Y-86619000D01*
X181559500Y-86564571D01*
X181595785Y-86528285D01*
X181632071Y-86510142D01*
X181704642Y-86492000D01*
X181759071Y-86492000D01*
X181831642Y-86510142D01*
X181867928Y-86528285D01*
X181904214Y-86564571D01*
X181922357Y-86619000D01*
X181922357Y-86709714D01*
X181904219Y-92703577D02*
X181922362Y-92649148D01*
X181922362Y-92558434D01*
X181904219Y-92522148D01*
X181886076Y-92504006D01*
X181849790Y-92485863D01*
X181813505Y-92485863D01*
X181777219Y-92504006D01*
X181759076Y-92522148D01*
X181740933Y-92558434D01*
X181722790Y-92631006D01*
X181704647Y-92667291D01*
X181686505Y-92685434D01*
X181650219Y-92703577D01*
X181613933Y-92703577D01*
X181577647Y-92685434D01*
X181559505Y-92667291D01*
X181541362Y-92631006D01*
X181541362Y-92540291D01*
X181559505Y-92485863D01*
X181886076Y-92104863D02*
X181904219Y-92123006D01*
X181922362Y-92177434D01*
X181922362Y-92213720D01*
X181904219Y-92268148D01*
X181867933Y-92304434D01*
X181831647Y-92322577D01*
X181759076Y-92340720D01*
X181704647Y-92340720D01*
X181632076Y-92322577D01*
X181595790Y-92304434D01*
X181559505Y-92268148D01*
X181541362Y-92213720D01*
X181541362Y-92177434D01*
X181559505Y-92123006D01*
X181577647Y-92104863D01*
X181922362Y-91760148D02*
X181922362Y-91941577D01*
X181541362Y-91941577D01*
X181559505Y-95131001D02*
X181541362Y-95167286D01*
X181541362Y-95221715D01*
X181559505Y-95276143D01*
X181595790Y-95312429D01*
X181632076Y-95330572D01*
X181704647Y-95348715D01*
X181759076Y-95348715D01*
X181831647Y-95330572D01*
X181867933Y-95312429D01*
X181904219Y-95276143D01*
X181922362Y-95221715D01*
X181922362Y-95185429D01*
X181904219Y-95131001D01*
X181886076Y-95112858D01*
X181759076Y-95112858D01*
X181759076Y-95185429D01*
X181922362Y-94949572D02*
X181541362Y-94949572D01*
X181541362Y-94804429D01*
X181559505Y-94768143D01*
X181577647Y-94750001D01*
X181613933Y-94731858D01*
X181668362Y-94731858D01*
X181704647Y-94750001D01*
X181722790Y-94768143D01*
X181740933Y-94804429D01*
X181740933Y-94949572D01*
X181922362Y-94568572D02*
X181541362Y-94568572D01*
X181541362Y-94314572D02*
X181541362Y-94242001D01*
X181559505Y-94205715D01*
X181595790Y-94169429D01*
X181668362Y-94151286D01*
X181795362Y-94151286D01*
X181867933Y-94169429D01*
X181904219Y-94205715D01*
X181922362Y-94242001D01*
X181922362Y-94314572D01*
X181904219Y-94350858D01*
X181867933Y-94387143D01*
X181795362Y-94405286D01*
X181668362Y-94405286D01*
X181595790Y-94387143D01*
X181559505Y-94350858D01*
X181541362Y-94314572D01*
X188154219Y-78453567D02*
X188172362Y-78399138D01*
X188172362Y-78308424D01*
X188154219Y-78272138D01*
X188136076Y-78253996D01*
X188099790Y-78235853D01*
X188063505Y-78235853D01*
X188027219Y-78253996D01*
X188009076Y-78272138D01*
X187990933Y-78308424D01*
X187972790Y-78380996D01*
X187954647Y-78417281D01*
X187936505Y-78435424D01*
X187900219Y-78453567D01*
X187863933Y-78453567D01*
X187827647Y-78435424D01*
X187809505Y-78417281D01*
X187791362Y-78380996D01*
X187791362Y-78290281D01*
X187809505Y-78235853D01*
X188136076Y-77854853D02*
X188154219Y-77872996D01*
X188172362Y-77927424D01*
X188172362Y-77963710D01*
X188154219Y-78018138D01*
X188117933Y-78054424D01*
X188081647Y-78072567D01*
X188009076Y-78090710D01*
X187954647Y-78090710D01*
X187882076Y-78072567D01*
X187845790Y-78054424D01*
X187809505Y-78018138D01*
X187791362Y-77963710D01*
X187791362Y-77927424D01*
X187809505Y-77872996D01*
X187827647Y-77854853D01*
X188172362Y-77510138D02*
X188172362Y-77691567D01*
X187791362Y-77691567D01*
X166192638Y-71654223D02*
X166247067Y-71672366D01*
X166337781Y-71672366D01*
X166374067Y-71654223D01*
X166392210Y-71636080D01*
X166410353Y-71599794D01*
X166410353Y-71563509D01*
X166392210Y-71527223D01*
X166374067Y-71509080D01*
X166337781Y-71490937D01*
X166265210Y-71472794D01*
X166228924Y-71454651D01*
X166210781Y-71436509D01*
X166192638Y-71400223D01*
X166192638Y-71363937D01*
X166210781Y-71327651D01*
X166228924Y-71309509D01*
X166265210Y-71291366D01*
X166355924Y-71291366D01*
X166410353Y-71309509D01*
X166537353Y-71291366D02*
X166628067Y-71672366D01*
X166700638Y-71400223D01*
X166773210Y-71672366D01*
X166863924Y-71291366D01*
X167009067Y-71672366D02*
X167009067Y-71291366D01*
X167099781Y-71291366D01*
X167154210Y-71309509D01*
X167190496Y-71345794D01*
X167208638Y-71382080D01*
X167226781Y-71454651D01*
X167226781Y-71509080D01*
X167208638Y-71581651D01*
X167190496Y-71617937D01*
X167154210Y-71654223D01*
X167099781Y-71672366D01*
X167009067Y-71672366D01*
X167390067Y-71672366D02*
X167390067Y-71291366D01*
X167644067Y-71291366D02*
X167716638Y-71291366D01*
X167752924Y-71309509D01*
X167789210Y-71345794D01*
X167807353Y-71418366D01*
X167807353Y-71545366D01*
X167789210Y-71617937D01*
X167752924Y-71654223D01*
X167716638Y-71672366D01*
X167644067Y-71672366D01*
X167607781Y-71654223D01*
X167571496Y-71617937D01*
X167553353Y-71545366D01*
X167553353Y-71418366D01*
X167571496Y-71345794D01*
X167607781Y-71309509D01*
X167644067Y-71291366D01*
X187809500Y-80815293D02*
X187791357Y-80851579D01*
X187791357Y-80906008D01*
X187809500Y-80960436D01*
X187845785Y-80996722D01*
X187882071Y-81014865D01*
X187954642Y-81033008D01*
X188009071Y-81033008D01*
X188081642Y-81014865D01*
X188117928Y-80996722D01*
X188154214Y-80960436D01*
X188172357Y-80906008D01*
X188172357Y-80869722D01*
X188154214Y-80815293D01*
X188136071Y-80797150D01*
X188009071Y-80797150D01*
X188009071Y-80869722D01*
X188172357Y-80633865D02*
X187791357Y-80633865D01*
X188172357Y-80416150D01*
X187791357Y-80416150D01*
X188172357Y-80234722D02*
X187791357Y-80234722D01*
X187791357Y-80144008D01*
X187809500Y-80089579D01*
X187845785Y-80053293D01*
X187882071Y-80035150D01*
X187954642Y-80017008D01*
X188009071Y-80017008D01*
X188081642Y-80035150D01*
X188117928Y-80053293D01*
X188154214Y-80089579D01*
X188172357Y-80144008D01*
X188172357Y-80234722D01*
X181904219Y-90212653D02*
X181922362Y-90158225D01*
X181922362Y-90067511D01*
X181904219Y-90031225D01*
X181886076Y-90013082D01*
X181849790Y-89994939D01*
X181813505Y-89994939D01*
X181777219Y-90013082D01*
X181759076Y-90031225D01*
X181740933Y-90067511D01*
X181722790Y-90140082D01*
X181704647Y-90176368D01*
X181686505Y-90194511D01*
X181650219Y-90212653D01*
X181613933Y-90212653D01*
X181577647Y-90194511D01*
X181559505Y-90176368D01*
X181541362Y-90140082D01*
X181541362Y-90049368D01*
X181559505Y-89994939D01*
X181922362Y-89831653D02*
X181541362Y-89831653D01*
X181541362Y-89740939D01*
X181559505Y-89686511D01*
X181595790Y-89650225D01*
X181632076Y-89632082D01*
X181704647Y-89613939D01*
X181759076Y-89613939D01*
X181831647Y-89632082D01*
X181867933Y-89650225D01*
X181904219Y-89686511D01*
X181922362Y-89740939D01*
X181922362Y-89831653D01*
X181813505Y-89468796D02*
X181813505Y-89287368D01*
X181922362Y-89505082D02*
X181541362Y-89378082D01*
X181922362Y-89251082D01*
X207894002Y-78559505D02*
X207857716Y-78541362D01*
X207803287Y-78541362D01*
X207748859Y-78559505D01*
X207712573Y-78595790D01*
X207694430Y-78632076D01*
X207676287Y-78704647D01*
X207676287Y-78759076D01*
X207694430Y-78831647D01*
X207712573Y-78867933D01*
X207748859Y-78904219D01*
X207803287Y-78922362D01*
X207839573Y-78922362D01*
X207894002Y-78904219D01*
X207912144Y-78886076D01*
X207912144Y-78759076D01*
X207839573Y-78759076D01*
X208075430Y-78922362D02*
X208075430Y-78541362D01*
X208220573Y-78541362D01*
X208256859Y-78559505D01*
X208275002Y-78577647D01*
X208293144Y-78613933D01*
X208293144Y-78668362D01*
X208275002Y-78704647D01*
X208256859Y-78722790D01*
X208220573Y-78740933D01*
X208075430Y-78740933D01*
X208456430Y-78922362D02*
X208456430Y-78541362D01*
X208710430Y-78541362D02*
X208783002Y-78541362D01*
X208819287Y-78559505D01*
X208855573Y-78595790D01*
X208873716Y-78668362D01*
X208873716Y-78795362D01*
X208855573Y-78867933D01*
X208819287Y-78904219D01*
X208783002Y-78922362D01*
X208710430Y-78922362D01*
X208674144Y-78904219D01*
X208637859Y-78867933D01*
X208619716Y-78795362D01*
X208619716Y-78668362D01*
X208637859Y-78595790D01*
X208674144Y-78559505D01*
X208710430Y-78541362D01*
X187791366Y-71008009D02*
X188172366Y-70881009D01*
X187791366Y-70754009D01*
X188136080Y-70409294D02*
X188154223Y-70427437D01*
X188172366Y-70481866D01*
X188172366Y-70518151D01*
X188154223Y-70572580D01*
X188117937Y-70608866D01*
X188081651Y-70627009D01*
X188009080Y-70645151D01*
X187954651Y-70645151D01*
X187882080Y-70627009D01*
X187845794Y-70608866D01*
X187809509Y-70572580D01*
X187791366Y-70518151D01*
X187791366Y-70481866D01*
X187809509Y-70427437D01*
X187827651Y-70409294D01*
X188136080Y-70028294D02*
X188154223Y-70046437D01*
X188172366Y-70100866D01*
X188172366Y-70137151D01*
X188154223Y-70191580D01*
X188117937Y-70227866D01*
X188081651Y-70246009D01*
X188009080Y-70264151D01*
X187954651Y-70264151D01*
X187882080Y-70246009D01*
X187845794Y-70227866D01*
X187809509Y-70191580D01*
X187791366Y-70137151D01*
X187791366Y-70100866D01*
X187809509Y-70046437D01*
X187827651Y-70028294D01*
D11*
X161104342Y-78657980D02*
X160771009Y-78181790D01*
X160532914Y-78657980D02*
X160532914Y-77657980D01*
X160913866Y-77657980D01*
X161009104Y-77705600D01*
X161056723Y-77753219D01*
X161104342Y-77848457D01*
X161104342Y-77991314D01*
X161056723Y-78086552D01*
X161009104Y-78134171D01*
X160913866Y-78181790D01*
X160532914Y-78181790D01*
X162056723Y-78657980D02*
X161485295Y-78657980D01*
X161771009Y-78657980D02*
X161771009Y-77657980D01*
X161675771Y-77800838D01*
X161580533Y-77896076D01*
X161485295Y-77943695D01*
X162913866Y-77657980D02*
X162723390Y-77657980D01*
X162628152Y-77705600D01*
X162580533Y-77753219D01*
X162485295Y-77896076D01*
X162437676Y-78086552D01*
X162437676Y-78467504D01*
X162485295Y-78562742D01*
X162532914Y-78610361D01*
X162628152Y-78657980D01*
X162818628Y-78657980D01*
X162913866Y-78610361D01*
X162961485Y-78562742D01*
X163009104Y-78467504D01*
X163009104Y-78229409D01*
X162961485Y-78134171D01*
X162913866Y-78086552D01*
X162818628Y-78038933D01*
X162628152Y-78038933D01*
X162532914Y-78086552D01*
X162485295Y-78134171D01*
X162437676Y-78229409D01*
X194988095Y-83452380D02*
X194511904Y-83452380D01*
X194511904Y-82452380D01*
X195750000Y-83452380D02*
X195750000Y-82928571D01*
X195702380Y-82833333D01*
X195607142Y-82785714D01*
X195416666Y-82785714D01*
X195321428Y-82833333D01*
X195750000Y-83404761D02*
X195654761Y-83452380D01*
X195416666Y-83452380D01*
X195321428Y-83404761D01*
X195273809Y-83309523D01*
X195273809Y-83214285D01*
X195321428Y-83119047D01*
X195416666Y-83071428D01*
X195654761Y-83071428D01*
X195750000Y-83023809D01*
X196178571Y-83404761D02*
X196273809Y-83452380D01*
X196464285Y-83452380D01*
X196559523Y-83404761D01*
X196607142Y-83309523D01*
X196607142Y-83261904D01*
X196559523Y-83166666D01*
X196464285Y-83119047D01*
X196321428Y-83119047D01*
X196226190Y-83071428D01*
X196178571Y-82976190D01*
X196178571Y-82928571D01*
X196226190Y-82833333D01*
X196321428Y-82785714D01*
X196464285Y-82785714D01*
X196559523Y-82833333D01*
X197416666Y-83404761D02*
X197321428Y-83452380D01*
X197130952Y-83452380D01*
X197035714Y-83404761D01*
X196988095Y-83309523D01*
X196988095Y-82928571D01*
X197035714Y-82833333D01*
X197130952Y-82785714D01*
X197321428Y-82785714D01*
X197416666Y-82833333D01*
X197464285Y-82928571D01*
X197464285Y-83023809D01*
X196988095Y-83119047D01*
X197892857Y-83452380D02*
X197892857Y-82785714D01*
X197892857Y-82976190D02*
X197940476Y-82880952D01*
X197988095Y-82833333D01*
X198083333Y-82785714D01*
X198178571Y-82785714D01*
X198464285Y-82547619D02*
X198511904Y-82500000D01*
X198607142Y-82452380D01*
X198845238Y-82452380D01*
X198940476Y-82500000D01*
X198988095Y-82547619D01*
X199035714Y-82642857D01*
X199035714Y-82738095D01*
X198988095Y-82880952D01*
X198416666Y-83452380D01*
X199035714Y-83452380D01*
X106166666Y-82952380D02*
X106166666Y-83666666D01*
X106119047Y-83809523D01*
X106023809Y-83904761D01*
X105880952Y-83952380D01*
X105785714Y-83952380D01*
X107166666Y-83952380D02*
X106595238Y-83952380D01*
X106880952Y-83952380D02*
X106880952Y-82952380D01*
X106785714Y-83095238D01*
X106690476Y-83190476D01*
X106595238Y-83238095D01*
X165157142Y-94682142D02*
X165109523Y-94729761D01*
X164966666Y-94777380D01*
X164871428Y-94777380D01*
X164728571Y-94729761D01*
X164633333Y-94634523D01*
X164585714Y-94539285D01*
X164538095Y-94348809D01*
X164538095Y-94205952D01*
X164585714Y-94015476D01*
X164633333Y-93920238D01*
X164728571Y-93825000D01*
X164871428Y-93777380D01*
X164966666Y-93777380D01*
X165109523Y-93825000D01*
X165157142Y-93872619D01*
X166109523Y-94777380D02*
X165538095Y-94777380D01*
X165823809Y-94777380D02*
X165823809Y-93777380D01*
X165728571Y-93920238D01*
X165633333Y-94015476D01*
X165538095Y-94063095D01*
X167014285Y-93777380D02*
X166538095Y-93777380D01*
X166490476Y-94253571D01*
X166538095Y-94205952D01*
X166633333Y-94158333D01*
X166871428Y-94158333D01*
X166966666Y-94205952D01*
X167014285Y-94253571D01*
X167061904Y-94348809D01*
X167061904Y-94586904D01*
X167014285Y-94682142D01*
X166966666Y-94729761D01*
X166871428Y-94777380D01*
X166633333Y-94777380D01*
X166538095Y-94729761D01*
X166490476Y-94682142D01*
X162433095Y-79722380D02*
X162433095Y-80531904D01*
X162480714Y-80627142D01*
X162528333Y-80674761D01*
X162623571Y-80722380D01*
X162814047Y-80722380D01*
X162909285Y-80674761D01*
X162956904Y-80627142D01*
X163004523Y-80531904D01*
X163004523Y-79722380D01*
X164004523Y-80722380D02*
X163433095Y-80722380D01*
X163718809Y-80722380D02*
X163718809Y-79722380D01*
X163623571Y-79865238D01*
X163528333Y-79960476D01*
X163433095Y-80008095D01*
X198469642Y-69432142D02*
X198422023Y-69479761D01*
X198279166Y-69527380D01*
X198183928Y-69527380D01*
X198041071Y-69479761D01*
X197945833Y-69384523D01*
X197898214Y-69289285D01*
X197850595Y-69098809D01*
X197850595Y-68955952D01*
X197898214Y-68765476D01*
X197945833Y-68670238D01*
X198041071Y-68575000D01*
X198183928Y-68527380D01*
X198279166Y-68527380D01*
X198422023Y-68575000D01*
X198469642Y-68622619D01*
X199422023Y-69527380D02*
X198850595Y-69527380D01*
X199136309Y-69527380D02*
X199136309Y-68527380D01*
X199041071Y-68670238D01*
X198945833Y-68765476D01*
X198850595Y-68813095D01*
X199755357Y-68527380D02*
X200374404Y-68527380D01*
X200041071Y-68908333D01*
X200183928Y-68908333D01*
X200279166Y-68955952D01*
X200326785Y-69003571D01*
X200374404Y-69098809D01*
X200374404Y-69336904D01*
X200326785Y-69432142D01*
X200279166Y-69479761D01*
X200183928Y-69527380D01*
X199898214Y-69527380D01*
X199802976Y-69479761D01*
X199755357Y-69432142D01*
X143133333Y-76482142D02*
X143085714Y-76529761D01*
X142942857Y-76577380D01*
X142847619Y-76577380D01*
X142704761Y-76529761D01*
X142609523Y-76434523D01*
X142561904Y-76339285D01*
X142514285Y-76148809D01*
X142514285Y-76005952D01*
X142561904Y-75815476D01*
X142609523Y-75720238D01*
X142704761Y-75625000D01*
X142847619Y-75577380D01*
X142942857Y-75577380D01*
X143085714Y-75625000D01*
X143133333Y-75672619D01*
X143609523Y-76577380D02*
X143800000Y-76577380D01*
X143895238Y-76529761D01*
X143942857Y-76482142D01*
X144038095Y-76339285D01*
X144085714Y-76148809D01*
X144085714Y-75767857D01*
X144038095Y-75672619D01*
X143990476Y-75625000D01*
X143895238Y-75577380D01*
X143704761Y-75577380D01*
X143609523Y-75625000D01*
X143561904Y-75672619D01*
X143514285Y-75767857D01*
X143514285Y-76005952D01*
X143561904Y-76101190D01*
X143609523Y-76148809D01*
X143704761Y-76196428D01*
X143895238Y-76196428D01*
X143990476Y-76148809D01*
X144038095Y-76101190D01*
X144085714Y-76005952D01*
X132088333Y-89027142D02*
X132040714Y-89074761D01*
X131897857Y-89122380D01*
X131802619Y-89122380D01*
X131659761Y-89074761D01*
X131564523Y-88979523D01*
X131516904Y-88884285D01*
X131469285Y-88693809D01*
X131469285Y-88550952D01*
X131516904Y-88360476D01*
X131564523Y-88265238D01*
X131659761Y-88170000D01*
X131802619Y-88122380D01*
X131897857Y-88122380D01*
X132040714Y-88170000D01*
X132088333Y-88217619D01*
X132993095Y-88122380D02*
X132516904Y-88122380D01*
X132469285Y-88598571D01*
X132516904Y-88550952D01*
X132612142Y-88503333D01*
X132850238Y-88503333D01*
X132945476Y-88550952D01*
X132993095Y-88598571D01*
X133040714Y-88693809D01*
X133040714Y-88931904D01*
X132993095Y-89027142D01*
X132945476Y-89074761D01*
X132850238Y-89122380D01*
X132612142Y-89122380D01*
X132516904Y-89074761D01*
X132469285Y-89027142D01*
X128758333Y-89807142D02*
X128710714Y-89854761D01*
X128567857Y-89902380D01*
X128472619Y-89902380D01*
X128329761Y-89854761D01*
X128234523Y-89759523D01*
X128186904Y-89664285D01*
X128139285Y-89473809D01*
X128139285Y-89330952D01*
X128186904Y-89140476D01*
X128234523Y-89045238D01*
X128329761Y-88950000D01*
X128472619Y-88902380D01*
X128567857Y-88902380D01*
X128710714Y-88950000D01*
X128758333Y-88997619D01*
X129139285Y-88997619D02*
X129186904Y-88950000D01*
X129282142Y-88902380D01*
X129520238Y-88902380D01*
X129615476Y-88950000D01*
X129663095Y-88997619D01*
X129710714Y-89092857D01*
X129710714Y-89188095D01*
X129663095Y-89330952D01*
X129091666Y-89902380D01*
X129710714Y-89902380D01*
X202615595Y-89142380D02*
X202615595Y-89951904D01*
X202663214Y-90047142D01*
X202710833Y-90094761D01*
X202806071Y-90142380D01*
X202996547Y-90142380D01*
X203091785Y-90094761D01*
X203139404Y-90047142D01*
X203187023Y-89951904D01*
X203187023Y-89142380D01*
X204091785Y-89142380D02*
X203901309Y-89142380D01*
X203806071Y-89190000D01*
X203758452Y-89237619D01*
X203663214Y-89380476D01*
X203615595Y-89570952D01*
X203615595Y-89951904D01*
X203663214Y-90047142D01*
X203710833Y-90094761D01*
X203806071Y-90142380D01*
X203996547Y-90142380D01*
X204091785Y-90094761D01*
X204139404Y-90047142D01*
X204187023Y-89951904D01*
X204187023Y-89713809D01*
X204139404Y-89618571D01*
X204091785Y-89570952D01*
X203996547Y-89523333D01*
X203806071Y-89523333D01*
X203710833Y-89570952D01*
X203663214Y-89618571D01*
X203615595Y-89713809D01*
X121403333Y-98267142D02*
X121355714Y-98314761D01*
X121212857Y-98362380D01*
X121117619Y-98362380D01*
X120974761Y-98314761D01*
X120879523Y-98219523D01*
X120831904Y-98124285D01*
X120784285Y-97933809D01*
X120784285Y-97790952D01*
X120831904Y-97600476D01*
X120879523Y-97505238D01*
X120974761Y-97410000D01*
X121117619Y-97362380D01*
X121212857Y-97362380D01*
X121355714Y-97410000D01*
X121403333Y-97457619D01*
X122355714Y-98362380D02*
X121784285Y-98362380D01*
X122070000Y-98362380D02*
X122070000Y-97362380D01*
X121974761Y-97505238D01*
X121879523Y-97600476D01*
X121784285Y-97648095D01*
X144513095Y-39597380D02*
X144513095Y-40406904D01*
X144560714Y-40502142D01*
X144608333Y-40549761D01*
X144703571Y-40597380D01*
X144894047Y-40597380D01*
X144989285Y-40549761D01*
X145036904Y-40502142D01*
X145084523Y-40406904D01*
X145084523Y-39597380D01*
X145989285Y-39930714D02*
X145989285Y-40597380D01*
X145751190Y-39549761D02*
X145513095Y-40264047D01*
X146132142Y-40264047D01*
X120661904Y-91027380D02*
X120661904Y-90027380D01*
X120900000Y-90027380D01*
X121042857Y-90075000D01*
X121138095Y-90170238D01*
X121185714Y-90265476D01*
X121233333Y-90455952D01*
X121233333Y-90598809D01*
X121185714Y-90789285D01*
X121138095Y-90884523D01*
X121042857Y-90979761D01*
X120900000Y-91027380D01*
X120661904Y-91027380D01*
X122185714Y-91027380D02*
X121614285Y-91027380D01*
X121900000Y-91027380D02*
X121900000Y-90027380D01*
X121804761Y-90170238D01*
X121709523Y-90265476D01*
X121614285Y-90313095D01*
X195294642Y-69432142D02*
X195247023Y-69479761D01*
X195104166Y-69527380D01*
X195008928Y-69527380D01*
X194866071Y-69479761D01*
X194770833Y-69384523D01*
X194723214Y-69289285D01*
X194675595Y-69098809D01*
X194675595Y-68955952D01*
X194723214Y-68765476D01*
X194770833Y-68670238D01*
X194866071Y-68575000D01*
X195008928Y-68527380D01*
X195104166Y-68527380D01*
X195247023Y-68575000D01*
X195294642Y-68622619D01*
X196247023Y-69527380D02*
X195675595Y-69527380D01*
X195961309Y-69527380D02*
X195961309Y-68527380D01*
X195866071Y-68670238D01*
X195770833Y-68765476D01*
X195675595Y-68813095D01*
X197199404Y-69527380D02*
X196627976Y-69527380D01*
X196913690Y-69527380D02*
X196913690Y-68527380D01*
X196818452Y-68670238D01*
X196723214Y-68765476D01*
X196627976Y-68813095D01*
X125786904Y-96952380D02*
X125786904Y-95952380D01*
X126025000Y-95952380D01*
X126167857Y-96000000D01*
X126263095Y-96095238D01*
X126310714Y-96190476D01*
X126358333Y-96380952D01*
X126358333Y-96523809D01*
X126310714Y-96714285D01*
X126263095Y-96809523D01*
X126167857Y-96904761D01*
X126025000Y-96952380D01*
X125786904Y-96952380D01*
X127263095Y-95952380D02*
X126786904Y-95952380D01*
X126739285Y-96428571D01*
X126786904Y-96380952D01*
X126882142Y-96333333D01*
X127120238Y-96333333D01*
X127215476Y-96380952D01*
X127263095Y-96428571D01*
X127310714Y-96523809D01*
X127310714Y-96761904D01*
X127263095Y-96857142D01*
X127215476Y-96904761D01*
X127120238Y-96952380D01*
X126882142Y-96952380D01*
X126786904Y-96904761D01*
X126739285Y-96857142D01*
X201485833Y-93797380D02*
X201152500Y-93321190D01*
X200914404Y-93797380D02*
X200914404Y-92797380D01*
X201295357Y-92797380D01*
X201390595Y-92845000D01*
X201438214Y-92892619D01*
X201485833Y-92987857D01*
X201485833Y-93130714D01*
X201438214Y-93225952D01*
X201390595Y-93273571D01*
X201295357Y-93321190D01*
X200914404Y-93321190D01*
X202342976Y-93130714D02*
X202342976Y-93797380D01*
X202104880Y-92749761D02*
X201866785Y-93464047D01*
X202485833Y-93464047D01*
X196095833Y-93842380D02*
X195762500Y-93366190D01*
X195524404Y-93842380D02*
X195524404Y-92842380D01*
X195905357Y-92842380D01*
X196000595Y-92890000D01*
X196048214Y-92937619D01*
X196095833Y-93032857D01*
X196095833Y-93175714D01*
X196048214Y-93270952D01*
X196000595Y-93318571D01*
X195905357Y-93366190D01*
X195524404Y-93366190D01*
X196429166Y-92842380D02*
X197048214Y-92842380D01*
X196714880Y-93223333D01*
X196857738Y-93223333D01*
X196952976Y-93270952D01*
X197000595Y-93318571D01*
X197048214Y-93413809D01*
X197048214Y-93651904D01*
X197000595Y-93747142D01*
X196952976Y-93794761D01*
X196857738Y-93842380D01*
X196572023Y-93842380D01*
X196476785Y-93794761D01*
X196429166Y-93747142D01*
X183838095Y-67677380D02*
X183361904Y-67677380D01*
X183361904Y-66677380D01*
X184600000Y-67677380D02*
X184600000Y-67153571D01*
X184552380Y-67058333D01*
X184457142Y-67010714D01*
X184266666Y-67010714D01*
X184171428Y-67058333D01*
X184600000Y-67629761D02*
X184504761Y-67677380D01*
X184266666Y-67677380D01*
X184171428Y-67629761D01*
X184123809Y-67534523D01*
X184123809Y-67439285D01*
X184171428Y-67344047D01*
X184266666Y-67296428D01*
X184504761Y-67296428D01*
X184600000Y-67248809D01*
X185028571Y-67629761D02*
X185123809Y-67677380D01*
X185314285Y-67677380D01*
X185409523Y-67629761D01*
X185457142Y-67534523D01*
X185457142Y-67486904D01*
X185409523Y-67391666D01*
X185314285Y-67344047D01*
X185171428Y-67344047D01*
X185076190Y-67296428D01*
X185028571Y-67201190D01*
X185028571Y-67153571D01*
X185076190Y-67058333D01*
X185171428Y-67010714D01*
X185314285Y-67010714D01*
X185409523Y-67058333D01*
X186266666Y-67629761D02*
X186171428Y-67677380D01*
X185980952Y-67677380D01*
X185885714Y-67629761D01*
X185838095Y-67534523D01*
X185838095Y-67153571D01*
X185885714Y-67058333D01*
X185980952Y-67010714D01*
X186171428Y-67010714D01*
X186266666Y-67058333D01*
X186314285Y-67153571D01*
X186314285Y-67248809D01*
X185838095Y-67344047D01*
X186742857Y-67677380D02*
X186742857Y-67010714D01*
X186742857Y-67201190D02*
X186790476Y-67105952D01*
X186838095Y-67058333D01*
X186933333Y-67010714D01*
X187028571Y-67010714D01*
X187885714Y-67677380D02*
X187314285Y-67677380D01*
X187600000Y-67677380D02*
X187600000Y-66677380D01*
X187504761Y-66820238D01*
X187409523Y-66915476D01*
X187314285Y-66963095D01*
X203430595Y-68667380D02*
X203430595Y-69476904D01*
X203478214Y-69572142D01*
X203525833Y-69619761D01*
X203621071Y-69667380D01*
X203811547Y-69667380D01*
X203906785Y-69619761D01*
X203954404Y-69572142D01*
X204002023Y-69476904D01*
X204002023Y-68667380D01*
X204954404Y-68667380D02*
X204478214Y-68667380D01*
X204430595Y-69143571D01*
X204478214Y-69095952D01*
X204573452Y-69048333D01*
X204811547Y-69048333D01*
X204906785Y-69095952D01*
X204954404Y-69143571D01*
X205002023Y-69238809D01*
X205002023Y-69476904D01*
X204954404Y-69572142D01*
X204906785Y-69619761D01*
X204811547Y-69667380D01*
X204573452Y-69667380D01*
X204478214Y-69619761D01*
X204430595Y-69572142D01*
X157416666Y-90769761D02*
X157559523Y-90817380D01*
X157797619Y-90817380D01*
X157892857Y-90769761D01*
X157940476Y-90722142D01*
X157988095Y-90626904D01*
X157988095Y-90531666D01*
X157940476Y-90436428D01*
X157892857Y-90388809D01*
X157797619Y-90341190D01*
X157607142Y-90293571D01*
X157511904Y-90245952D01*
X157464285Y-90198333D01*
X157416666Y-90103095D01*
X157416666Y-90007857D01*
X157464285Y-89912619D01*
X157511904Y-89865000D01*
X157607142Y-89817380D01*
X157845238Y-89817380D01*
X157988095Y-89865000D01*
X158321428Y-89817380D02*
X158559523Y-90817380D01*
X158750000Y-90103095D01*
X158940476Y-90817380D01*
X159178571Y-89817380D01*
X159511904Y-89912619D02*
X159559523Y-89865000D01*
X159654761Y-89817380D01*
X159892857Y-89817380D01*
X159988095Y-89865000D01*
X160035714Y-89912619D01*
X160083333Y-90007857D01*
X160083333Y-90103095D01*
X160035714Y-90245952D01*
X159464285Y-90817380D01*
X160083333Y-90817380D01*
X208087933Y-89885780D02*
X207754600Y-89409590D01*
X207516504Y-89885780D02*
X207516504Y-88885780D01*
X207897457Y-88885780D01*
X207992695Y-88933400D01*
X208040314Y-88981019D01*
X208087933Y-89076257D01*
X208087933Y-89219114D01*
X208040314Y-89314352D01*
X207992695Y-89361971D01*
X207897457Y-89409590D01*
X207516504Y-89409590D01*
X208468885Y-88981019D02*
X208516504Y-88933400D01*
X208611742Y-88885780D01*
X208849838Y-88885780D01*
X208945076Y-88933400D01*
X208992695Y-88981019D01*
X209040314Y-89076257D01*
X209040314Y-89171495D01*
X208992695Y-89314352D01*
X208421266Y-89885780D01*
X209040314Y-89885780D01*
X155657142Y-82782142D02*
X155609523Y-82829761D01*
X155466666Y-82877380D01*
X155371428Y-82877380D01*
X155228571Y-82829761D01*
X155133333Y-82734523D01*
X155085714Y-82639285D01*
X155038095Y-82448809D01*
X155038095Y-82305952D01*
X155085714Y-82115476D01*
X155133333Y-82020238D01*
X155228571Y-81925000D01*
X155371428Y-81877380D01*
X155466666Y-81877380D01*
X155609523Y-81925000D01*
X155657142Y-81972619D01*
X156609523Y-82877380D02*
X156038095Y-82877380D01*
X156323809Y-82877380D02*
X156323809Y-81877380D01*
X156228571Y-82020238D01*
X156133333Y-82115476D01*
X156038095Y-82163095D01*
X156942857Y-81877380D02*
X157609523Y-81877380D01*
X157180952Y-82877380D01*
X140168333Y-86432380D02*
X139835000Y-85956190D01*
X139596904Y-86432380D02*
X139596904Y-85432380D01*
X139977857Y-85432380D01*
X140073095Y-85480000D01*
X140120714Y-85527619D01*
X140168333Y-85622857D01*
X140168333Y-85765714D01*
X140120714Y-85860952D01*
X140073095Y-85908571D01*
X139977857Y-85956190D01*
X139596904Y-85956190D01*
X141073095Y-85432380D02*
X140596904Y-85432380D01*
X140549285Y-85908571D01*
X140596904Y-85860952D01*
X140692142Y-85813333D01*
X140930238Y-85813333D01*
X141025476Y-85860952D01*
X141073095Y-85908571D01*
X141120714Y-86003809D01*
X141120714Y-86241904D01*
X141073095Y-86337142D01*
X141025476Y-86384761D01*
X140930238Y-86432380D01*
X140692142Y-86432380D01*
X140596904Y-86384761D01*
X140549285Y-86337142D01*
X201644642Y-74112380D02*
X201311309Y-73636190D01*
X201073214Y-74112380D02*
X201073214Y-73112380D01*
X201454166Y-73112380D01*
X201549404Y-73160000D01*
X201597023Y-73207619D01*
X201644642Y-73302857D01*
X201644642Y-73445714D01*
X201597023Y-73540952D01*
X201549404Y-73588571D01*
X201454166Y-73636190D01*
X201073214Y-73636190D01*
X202597023Y-74112380D02*
X202025595Y-74112380D01*
X202311309Y-74112380D02*
X202311309Y-73112380D01*
X202216071Y-73255238D01*
X202120833Y-73350476D01*
X202025595Y-73398095D01*
X202977976Y-73207619D02*
X203025595Y-73160000D01*
X203120833Y-73112380D01*
X203358928Y-73112380D01*
X203454166Y-73160000D01*
X203501785Y-73207619D01*
X203549404Y-73302857D01*
X203549404Y-73398095D01*
X203501785Y-73540952D01*
X202930357Y-74112380D01*
X203549404Y-74112380D01*
X128308333Y-93757142D02*
X128260714Y-93804761D01*
X128117857Y-93852380D01*
X128022619Y-93852380D01*
X127879761Y-93804761D01*
X127784523Y-93709523D01*
X127736904Y-93614285D01*
X127689285Y-93423809D01*
X127689285Y-93280952D01*
X127736904Y-93090476D01*
X127784523Y-92995238D01*
X127879761Y-92900000D01*
X128022619Y-92852380D01*
X128117857Y-92852380D01*
X128260714Y-92900000D01*
X128308333Y-92947619D01*
X128641666Y-92852380D02*
X129260714Y-92852380D01*
X128927380Y-93233333D01*
X129070238Y-93233333D01*
X129165476Y-93280952D01*
X129213095Y-93328571D01*
X129260714Y-93423809D01*
X129260714Y-93661904D01*
X129213095Y-93757142D01*
X129165476Y-93804761D01*
X129070238Y-93852380D01*
X128784523Y-93852380D01*
X128689285Y-93804761D01*
X128641666Y-93757142D01*
X120316666Y-76223571D02*
X119983333Y-76223571D01*
X119983333Y-76747380D02*
X119983333Y-75747380D01*
X120459523Y-75747380D01*
X121364285Y-76747380D02*
X120792857Y-76747380D01*
X121078571Y-76747380D02*
X121078571Y-75747380D01*
X120983333Y-75890238D01*
X120888095Y-75985476D01*
X120792857Y-76033095D01*
X148582142Y-90052142D02*
X148534523Y-90099761D01*
X148391666Y-90147380D01*
X148296428Y-90147380D01*
X148153571Y-90099761D01*
X148058333Y-90004523D01*
X148010714Y-89909285D01*
X147963095Y-89718809D01*
X147963095Y-89575952D01*
X148010714Y-89385476D01*
X148058333Y-89290238D01*
X148153571Y-89195000D01*
X148296428Y-89147380D01*
X148391666Y-89147380D01*
X148534523Y-89195000D01*
X148582142Y-89242619D01*
X148963095Y-89242619D02*
X149010714Y-89195000D01*
X149105952Y-89147380D01*
X149344047Y-89147380D01*
X149439285Y-89195000D01*
X149486904Y-89242619D01*
X149534523Y-89337857D01*
X149534523Y-89433095D01*
X149486904Y-89575952D01*
X148915476Y-90147380D01*
X149534523Y-90147380D01*
X149867857Y-89147380D02*
X150486904Y-89147380D01*
X150153571Y-89528333D01*
X150296428Y-89528333D01*
X150391666Y-89575952D01*
X150439285Y-89623571D01*
X150486904Y-89718809D01*
X150486904Y-89956904D01*
X150439285Y-90052142D01*
X150391666Y-90099761D01*
X150296428Y-90147380D01*
X150010714Y-90147380D01*
X149915476Y-90099761D01*
X149867857Y-90052142D01*
X162666666Y-70404761D02*
X162809523Y-70452380D01*
X163047619Y-70452380D01*
X163142857Y-70404761D01*
X163190476Y-70357142D01*
X163238095Y-70261904D01*
X163238095Y-70166666D01*
X163190476Y-70071428D01*
X163142857Y-70023809D01*
X163047619Y-69976190D01*
X162857142Y-69928571D01*
X162761904Y-69880952D01*
X162714285Y-69833333D01*
X162666666Y-69738095D01*
X162666666Y-69642857D01*
X162714285Y-69547619D01*
X162761904Y-69500000D01*
X162857142Y-69452380D01*
X163095238Y-69452380D01*
X163238095Y-69500000D01*
X163523809Y-69452380D02*
X164095238Y-69452380D01*
X163809523Y-70452380D02*
X163809523Y-69452380D01*
X164904761Y-70452380D02*
X164428571Y-70452380D01*
X164428571Y-69452380D01*
X165238095Y-70452380D02*
X165238095Y-69452380D01*
X165714285Y-70452380D02*
X165714285Y-69452380D01*
X166285714Y-70452380D01*
X166285714Y-69452380D01*
X166761904Y-70452380D02*
X166761904Y-69452380D01*
X167333333Y-70452380D02*
X166904761Y-69880952D01*
X167333333Y-69452380D02*
X166761904Y-70023809D01*
X209105833Y-69667380D02*
X208772500Y-69191190D01*
X208534404Y-69667380D02*
X208534404Y-68667380D01*
X208915357Y-68667380D01*
X209010595Y-68715000D01*
X209058214Y-68762619D01*
X209105833Y-68857857D01*
X209105833Y-69000714D01*
X209058214Y-69095952D01*
X209010595Y-69143571D01*
X208915357Y-69191190D01*
X208534404Y-69191190D01*
X209677261Y-69095952D02*
X209582023Y-69048333D01*
X209534404Y-69000714D01*
X209486785Y-68905476D01*
X209486785Y-68857857D01*
X209534404Y-68762619D01*
X209582023Y-68715000D01*
X209677261Y-68667380D01*
X209867738Y-68667380D01*
X209962976Y-68715000D01*
X210010595Y-68762619D01*
X210058214Y-68857857D01*
X210058214Y-68905476D01*
X210010595Y-69000714D01*
X209962976Y-69048333D01*
X209867738Y-69095952D01*
X209677261Y-69095952D01*
X209582023Y-69143571D01*
X209534404Y-69191190D01*
X209486785Y-69286428D01*
X209486785Y-69476904D01*
X209534404Y-69572142D01*
X209582023Y-69619761D01*
X209677261Y-69667380D01*
X209867738Y-69667380D01*
X209962976Y-69619761D01*
X210010595Y-69572142D01*
X210058214Y-69476904D01*
X210058214Y-69286428D01*
X210010595Y-69191190D01*
X209962976Y-69143571D01*
X209867738Y-69095952D01*
X195702578Y-74112380D02*
X195369245Y-73636190D01*
X195131150Y-74112380D02*
X195131150Y-73112380D01*
X195512102Y-73112380D01*
X195607340Y-73160000D01*
X195654959Y-73207619D01*
X195702578Y-73302857D01*
X195702578Y-73445714D01*
X195654959Y-73540952D01*
X195607340Y-73588571D01*
X195512102Y-73636190D01*
X195131150Y-73636190D01*
X196654959Y-74112380D02*
X196083531Y-74112380D01*
X196369245Y-74112380D02*
X196369245Y-73112380D01*
X196274007Y-73255238D01*
X196178769Y-73350476D01*
X196083531Y-73398095D01*
X197274007Y-73112380D02*
X197369245Y-73112380D01*
X197464483Y-73160000D01*
X197512102Y-73207619D01*
X197559721Y-73302857D01*
X197607340Y-73493333D01*
X197607340Y-73731428D01*
X197559721Y-73921904D01*
X197512102Y-74017142D01*
X197464483Y-74064761D01*
X197369245Y-74112380D01*
X197274007Y-74112380D01*
X197178769Y-74064761D01*
X197131150Y-74017142D01*
X197083531Y-73921904D01*
X197035912Y-73731428D01*
X197035912Y-73493333D01*
X197083531Y-73302857D01*
X197131150Y-73207619D01*
X197178769Y-73160000D01*
X197274007Y-73112380D01*
X152607142Y-89202380D02*
X152273809Y-88726190D01*
X152035714Y-89202380D02*
X152035714Y-88202380D01*
X152416666Y-88202380D01*
X152511904Y-88250000D01*
X152559523Y-88297619D01*
X152607142Y-88392857D01*
X152607142Y-88535714D01*
X152559523Y-88630952D01*
X152511904Y-88678571D01*
X152416666Y-88726190D01*
X152035714Y-88726190D01*
X153559523Y-89202380D02*
X152988095Y-89202380D01*
X153273809Y-89202380D02*
X153273809Y-88202380D01*
X153178571Y-88345238D01*
X153083333Y-88440476D01*
X152988095Y-88488095D01*
X153892857Y-88202380D02*
X154559523Y-88202380D01*
X154130952Y-89202380D01*
X145948809Y-84301190D02*
X145948809Y-84777380D01*
X145615476Y-83777380D02*
X145948809Y-84301190D01*
X146282142Y-83777380D01*
X147139285Y-84777380D02*
X146567857Y-84777380D01*
X146853571Y-84777380D02*
X146853571Y-83777380D01*
X146758333Y-83920238D01*
X146663095Y-84015476D01*
X146567857Y-84063095D01*
X206410833Y-93842380D02*
X206077500Y-93366190D01*
X205839404Y-93842380D02*
X205839404Y-92842380D01*
X206220357Y-92842380D01*
X206315595Y-92890000D01*
X206363214Y-92937619D01*
X206410833Y-93032857D01*
X206410833Y-93175714D01*
X206363214Y-93270952D01*
X206315595Y-93318571D01*
X206220357Y-93366190D01*
X205839404Y-93366190D01*
X206887023Y-93842380D02*
X207077500Y-93842380D01*
X207172738Y-93794761D01*
X207220357Y-93747142D01*
X207315595Y-93604285D01*
X207363214Y-93413809D01*
X207363214Y-93032857D01*
X207315595Y-92937619D01*
X207267976Y-92890000D01*
X207172738Y-92842380D01*
X206982261Y-92842380D01*
X206887023Y-92890000D01*
X206839404Y-92937619D01*
X206791785Y-93032857D01*
X206791785Y-93270952D01*
X206839404Y-93366190D01*
X206887023Y-93413809D01*
X206982261Y-93461428D01*
X207172738Y-93461428D01*
X207267976Y-93413809D01*
X207315595Y-93366190D01*
X207363214Y-93270952D01*
X197585833Y-89647142D02*
X197538214Y-89694761D01*
X197395357Y-89742380D01*
X197300119Y-89742380D01*
X197157261Y-89694761D01*
X197062023Y-89599523D01*
X197014404Y-89504285D01*
X196966785Y-89313809D01*
X196966785Y-89170952D01*
X197014404Y-88980476D01*
X197062023Y-88885238D01*
X197157261Y-88790000D01*
X197300119Y-88742380D01*
X197395357Y-88742380D01*
X197538214Y-88790000D01*
X197585833Y-88837619D01*
X198442976Y-89075714D02*
X198442976Y-89742380D01*
X198204880Y-88694761D02*
X197966785Y-89409047D01*
X198585833Y-89409047D01*
X194988095Y-63702380D02*
X194511904Y-63702380D01*
X194511904Y-62702380D01*
X195750000Y-63702380D02*
X195750000Y-63178571D01*
X195702380Y-63083333D01*
X195607142Y-63035714D01*
X195416666Y-63035714D01*
X195321428Y-63083333D01*
X195750000Y-63654761D02*
X195654761Y-63702380D01*
X195416666Y-63702380D01*
X195321428Y-63654761D01*
X195273809Y-63559523D01*
X195273809Y-63464285D01*
X195321428Y-63369047D01*
X195416666Y-63321428D01*
X195654761Y-63321428D01*
X195750000Y-63273809D01*
X196178571Y-63654761D02*
X196273809Y-63702380D01*
X196464285Y-63702380D01*
X196559523Y-63654761D01*
X196607142Y-63559523D01*
X196607142Y-63511904D01*
X196559523Y-63416666D01*
X196464285Y-63369047D01*
X196321428Y-63369047D01*
X196226190Y-63321428D01*
X196178571Y-63226190D01*
X196178571Y-63178571D01*
X196226190Y-63083333D01*
X196321428Y-63035714D01*
X196464285Y-63035714D01*
X196559523Y-63083333D01*
X197416666Y-63654761D02*
X197321428Y-63702380D01*
X197130952Y-63702380D01*
X197035714Y-63654761D01*
X196988095Y-63559523D01*
X196988095Y-63178571D01*
X197035714Y-63083333D01*
X197130952Y-63035714D01*
X197321428Y-63035714D01*
X197416666Y-63083333D01*
X197464285Y-63178571D01*
X197464285Y-63273809D01*
X196988095Y-63369047D01*
X197892857Y-63702380D02*
X197892857Y-63035714D01*
X197892857Y-63226190D02*
X197940476Y-63130952D01*
X197988095Y-63083333D01*
X198083333Y-63035714D01*
X198178571Y-63035714D01*
X199035714Y-63702380D02*
X198464285Y-63702380D01*
X198750000Y-63702380D02*
X198750000Y-62702380D01*
X198654761Y-62845238D01*
X198559523Y-62940476D01*
X198464285Y-62988095D01*
X168902142Y-93137142D02*
X168854523Y-93184761D01*
X168711666Y-93232380D01*
X168616428Y-93232380D01*
X168473571Y-93184761D01*
X168378333Y-93089523D01*
X168330714Y-92994285D01*
X168283095Y-92803809D01*
X168283095Y-92660952D01*
X168330714Y-92470476D01*
X168378333Y-92375238D01*
X168473571Y-92280000D01*
X168616428Y-92232380D01*
X168711666Y-92232380D01*
X168854523Y-92280000D01*
X168902142Y-92327619D01*
X169854523Y-93232380D02*
X169283095Y-93232380D01*
X169568809Y-93232380D02*
X169568809Y-92232380D01*
X169473571Y-92375238D01*
X169378333Y-92470476D01*
X169283095Y-92518095D01*
X170330714Y-93232380D02*
X170521190Y-93232380D01*
X170616428Y-93184761D01*
X170664047Y-93137142D01*
X170759285Y-92994285D01*
X170806904Y-92803809D01*
X170806904Y-92422857D01*
X170759285Y-92327619D01*
X170711666Y-92280000D01*
X170616428Y-92232380D01*
X170425952Y-92232380D01*
X170330714Y-92280000D01*
X170283095Y-92327619D01*
X170235476Y-92422857D01*
X170235476Y-92660952D01*
X170283095Y-92756190D01*
X170330714Y-92803809D01*
X170425952Y-92851428D01*
X170616428Y-92851428D01*
X170711666Y-92803809D01*
X170759285Y-92756190D01*
X170806904Y-92660952D01*
X168962142Y-96527142D02*
X168914523Y-96574761D01*
X168771666Y-96622380D01*
X168676428Y-96622380D01*
X168533571Y-96574761D01*
X168438333Y-96479523D01*
X168390714Y-96384285D01*
X168343095Y-96193809D01*
X168343095Y-96050952D01*
X168390714Y-95860476D01*
X168438333Y-95765238D01*
X168533571Y-95670000D01*
X168676428Y-95622380D01*
X168771666Y-95622380D01*
X168914523Y-95670000D01*
X168962142Y-95717619D01*
X169343095Y-95717619D02*
X169390714Y-95670000D01*
X169485952Y-95622380D01*
X169724047Y-95622380D01*
X169819285Y-95670000D01*
X169866904Y-95717619D01*
X169914523Y-95812857D01*
X169914523Y-95908095D01*
X169866904Y-96050952D01*
X169295476Y-96622380D01*
X169914523Y-96622380D01*
X170295476Y-95717619D02*
X170343095Y-95670000D01*
X170438333Y-95622380D01*
X170676428Y-95622380D01*
X170771666Y-95670000D01*
X170819285Y-95717619D01*
X170866904Y-95812857D01*
X170866904Y-95908095D01*
X170819285Y-96050952D01*
X170247857Y-96622380D01*
X170866904Y-96622380D01*
X131987735Y-80202122D02*
X131987735Y-81012028D01*
X132035377Y-81107311D01*
X132083018Y-81154952D01*
X132178301Y-81202594D01*
X132368867Y-81202594D01*
X132464150Y-81154952D01*
X132511792Y-81107311D01*
X132559433Y-81012028D01*
X132559433Y-80202122D01*
X132940566Y-80202122D02*
X133559905Y-80202122D01*
X133226415Y-80583254D01*
X133369339Y-80583254D01*
X133464622Y-80630896D01*
X133512264Y-80678537D01*
X133559905Y-80773820D01*
X133559905Y-81012028D01*
X133512264Y-81107311D01*
X133464622Y-81154952D01*
X133369339Y-81202594D01*
X133083490Y-81202594D01*
X132988207Y-81154952D01*
X132940566Y-81107311D01*
X143133333Y-78527380D02*
X142800000Y-78051190D01*
X142561904Y-78527380D02*
X142561904Y-77527380D01*
X142942857Y-77527380D01*
X143038095Y-77575000D01*
X143085714Y-77622619D01*
X143133333Y-77717857D01*
X143133333Y-77860714D01*
X143085714Y-77955952D01*
X143038095Y-78003571D01*
X142942857Y-78051190D01*
X142561904Y-78051190D01*
X143466666Y-77527380D02*
X144133333Y-77527380D01*
X143704761Y-78527380D01*
X135573333Y-98297142D02*
X135525714Y-98344761D01*
X135382857Y-98392380D01*
X135287619Y-98392380D01*
X135144761Y-98344761D01*
X135049523Y-98249523D01*
X135001904Y-98154285D01*
X134954285Y-97963809D01*
X134954285Y-97820952D01*
X135001904Y-97630476D01*
X135049523Y-97535238D01*
X135144761Y-97440000D01*
X135287619Y-97392380D01*
X135382857Y-97392380D01*
X135525714Y-97440000D01*
X135573333Y-97487619D01*
X136144761Y-97820952D02*
X136049523Y-97773333D01*
X136001904Y-97725714D01*
X135954285Y-97630476D01*
X135954285Y-97582857D01*
X136001904Y-97487619D01*
X136049523Y-97440000D01*
X136144761Y-97392380D01*
X136335238Y-97392380D01*
X136430476Y-97440000D01*
X136478095Y-97487619D01*
X136525714Y-97582857D01*
X136525714Y-97630476D01*
X136478095Y-97725714D01*
X136430476Y-97773333D01*
X136335238Y-97820952D01*
X136144761Y-97820952D01*
X136049523Y-97868571D01*
X136001904Y-97916190D01*
X135954285Y-98011428D01*
X135954285Y-98201904D01*
X136001904Y-98297142D01*
X136049523Y-98344761D01*
X136144761Y-98392380D01*
X136335238Y-98392380D01*
X136430476Y-98344761D01*
X136478095Y-98297142D01*
X136525714Y-98201904D01*
X136525714Y-98011428D01*
X136478095Y-97916190D01*
X136430476Y-97868571D01*
X136335238Y-97820952D01*
X149383333Y-76452380D02*
X149050000Y-75976190D01*
X148811904Y-76452380D02*
X148811904Y-75452380D01*
X149192857Y-75452380D01*
X149288095Y-75500000D01*
X149335714Y-75547619D01*
X149383333Y-75642857D01*
X149383333Y-75785714D01*
X149335714Y-75880952D01*
X149288095Y-75928571D01*
X149192857Y-75976190D01*
X148811904Y-75976190D01*
X150240476Y-75452380D02*
X150050000Y-75452380D01*
X149954761Y-75500000D01*
X149907142Y-75547619D01*
X149811904Y-75690476D01*
X149764285Y-75880952D01*
X149764285Y-76261904D01*
X149811904Y-76357142D01*
X149859523Y-76404761D01*
X149954761Y-76452380D01*
X150145238Y-76452380D01*
X150240476Y-76404761D01*
X150288095Y-76357142D01*
X150335714Y-76261904D01*
X150335714Y-76023809D01*
X150288095Y-75928571D01*
X150240476Y-75880952D01*
X150145238Y-75833333D01*
X149954761Y-75833333D01*
X149859523Y-75880952D01*
X149811904Y-75928571D01*
X149764285Y-76023809D01*
X206724642Y-73857380D02*
X206391309Y-73381190D01*
X206153214Y-73857380D02*
X206153214Y-72857380D01*
X206534166Y-72857380D01*
X206629404Y-72905000D01*
X206677023Y-72952619D01*
X206724642Y-73047857D01*
X206724642Y-73190714D01*
X206677023Y-73285952D01*
X206629404Y-73333571D01*
X206534166Y-73381190D01*
X206153214Y-73381190D01*
X207677023Y-73857380D02*
X207105595Y-73857380D01*
X207391309Y-73857380D02*
X207391309Y-72857380D01*
X207296071Y-73000238D01*
X207200833Y-73095476D01*
X207105595Y-73143095D01*
X208534166Y-73190714D02*
X208534166Y-73857380D01*
X208296071Y-72809761D02*
X208057976Y-73524047D01*
X208677023Y-73524047D01*
X148682142Y-81407142D02*
X148634523Y-81454761D01*
X148491666Y-81502380D01*
X148396428Y-81502380D01*
X148253571Y-81454761D01*
X148158333Y-81359523D01*
X148110714Y-81264285D01*
X148063095Y-81073809D01*
X148063095Y-80930952D01*
X148110714Y-80740476D01*
X148158333Y-80645238D01*
X148253571Y-80550000D01*
X148396428Y-80502380D01*
X148491666Y-80502380D01*
X148634523Y-80550000D01*
X148682142Y-80597619D01*
X149063095Y-80597619D02*
X149110714Y-80550000D01*
X149205952Y-80502380D01*
X149444047Y-80502380D01*
X149539285Y-80550000D01*
X149586904Y-80597619D01*
X149634523Y-80692857D01*
X149634523Y-80788095D01*
X149586904Y-80930952D01*
X149015476Y-81502380D01*
X149634523Y-81502380D01*
X150586904Y-81502380D02*
X150015476Y-81502380D01*
X150301190Y-81502380D02*
X150301190Y-80502380D01*
X150205952Y-80645238D01*
X150110714Y-80740476D01*
X150015476Y-80788095D01*
X177613095Y-84877380D02*
X177136904Y-84877380D01*
X177136904Y-83877380D01*
X178375000Y-84877380D02*
X178375000Y-84353571D01*
X178327380Y-84258333D01*
X178232142Y-84210714D01*
X178041666Y-84210714D01*
X177946428Y-84258333D01*
X178375000Y-84829761D02*
X178279761Y-84877380D01*
X178041666Y-84877380D01*
X177946428Y-84829761D01*
X177898809Y-84734523D01*
X177898809Y-84639285D01*
X177946428Y-84544047D01*
X178041666Y-84496428D01*
X178279761Y-84496428D01*
X178375000Y-84448809D01*
X178803571Y-84829761D02*
X178898809Y-84877380D01*
X179089285Y-84877380D01*
X179184523Y-84829761D01*
X179232142Y-84734523D01*
X179232142Y-84686904D01*
X179184523Y-84591666D01*
X179089285Y-84544047D01*
X178946428Y-84544047D01*
X178851190Y-84496428D01*
X178803571Y-84401190D01*
X178803571Y-84353571D01*
X178851190Y-84258333D01*
X178946428Y-84210714D01*
X179089285Y-84210714D01*
X179184523Y-84258333D01*
X180041666Y-84829761D02*
X179946428Y-84877380D01*
X179755952Y-84877380D01*
X179660714Y-84829761D01*
X179613095Y-84734523D01*
X179613095Y-84353571D01*
X179660714Y-84258333D01*
X179755952Y-84210714D01*
X179946428Y-84210714D01*
X180041666Y-84258333D01*
X180089285Y-84353571D01*
X180089285Y-84448809D01*
X179613095Y-84544047D01*
X180517857Y-84877380D02*
X180517857Y-84210714D01*
X180517857Y-84401190D02*
X180565476Y-84305952D01*
X180613095Y-84258333D01*
X180708333Y-84210714D01*
X180803571Y-84210714D01*
X181089285Y-83972619D02*
X181136904Y-83925000D01*
X181232142Y-83877380D01*
X181470238Y-83877380D01*
X181565476Y-83925000D01*
X181613095Y-83972619D01*
X181660714Y-84067857D01*
X181660714Y-84163095D01*
X181613095Y-84305952D01*
X181041666Y-84877380D01*
X181660714Y-84877380D01*
X152307142Y-80732142D02*
X152259523Y-80779761D01*
X152116666Y-80827380D01*
X152021428Y-80827380D01*
X151878571Y-80779761D01*
X151783333Y-80684523D01*
X151735714Y-80589285D01*
X151688095Y-80398809D01*
X151688095Y-80255952D01*
X151735714Y-80065476D01*
X151783333Y-79970238D01*
X151878571Y-79875000D01*
X152021428Y-79827380D01*
X152116666Y-79827380D01*
X152259523Y-79875000D01*
X152307142Y-79922619D01*
X153259523Y-80827380D02*
X152688095Y-80827380D01*
X152973809Y-80827380D02*
X152973809Y-79827380D01*
X152878571Y-79970238D01*
X152783333Y-80065476D01*
X152688095Y-80113095D01*
X153830952Y-80255952D02*
X153735714Y-80208333D01*
X153688095Y-80160714D01*
X153640476Y-80065476D01*
X153640476Y-80017857D01*
X153688095Y-79922619D01*
X153735714Y-79875000D01*
X153830952Y-79827380D01*
X154021428Y-79827380D01*
X154116666Y-79875000D01*
X154164285Y-79922619D01*
X154211904Y-80017857D01*
X154211904Y-80065476D01*
X154164285Y-80160714D01*
X154116666Y-80208333D01*
X154021428Y-80255952D01*
X153830952Y-80255952D01*
X153735714Y-80303571D01*
X153688095Y-80351190D01*
X153640476Y-80446428D01*
X153640476Y-80636904D01*
X153688095Y-80732142D01*
X153735714Y-80779761D01*
X153830952Y-80827380D01*
X154021428Y-80827380D01*
X154116666Y-80779761D01*
X154164285Y-80732142D01*
X154211904Y-80636904D01*
X154211904Y-80446428D01*
X154164285Y-80351190D01*
X154116666Y-80303571D01*
X154021428Y-80255952D01*
X132083333Y-92452380D02*
X131750000Y-91976190D01*
X131511904Y-92452380D02*
X131511904Y-91452380D01*
X131892857Y-91452380D01*
X131988095Y-91500000D01*
X132035714Y-91547619D01*
X132083333Y-91642857D01*
X132083333Y-91785714D01*
X132035714Y-91880952D01*
X131988095Y-91928571D01*
X131892857Y-91976190D01*
X131511904Y-91976190D01*
X133035714Y-92452380D02*
X132464285Y-92452380D01*
X132750000Y-92452380D02*
X132750000Y-91452380D01*
X132654761Y-91595238D01*
X132559523Y-91690476D01*
X132464285Y-91738095D01*
X120636904Y-94752380D02*
X120636904Y-93752380D01*
X120875000Y-93752380D01*
X121017857Y-93800000D01*
X121113095Y-93895238D01*
X121160714Y-93990476D01*
X121208333Y-94180952D01*
X121208333Y-94323809D01*
X121160714Y-94514285D01*
X121113095Y-94609523D01*
X121017857Y-94704761D01*
X120875000Y-94752380D01*
X120636904Y-94752380D01*
X121589285Y-93847619D02*
X121636904Y-93800000D01*
X121732142Y-93752380D01*
X121970238Y-93752380D01*
X122065476Y-93800000D01*
X122113095Y-93847619D01*
X122160714Y-93942857D01*
X122160714Y-94038095D01*
X122113095Y-94180952D01*
X121541666Y-94752380D01*
X122160714Y-94752380D01*
X141929761Y-96177380D02*
X141596428Y-95701190D01*
X141358333Y-96177380D02*
X141358333Y-95177380D01*
X141739285Y-95177380D01*
X141834523Y-95225000D01*
X141882142Y-95272619D01*
X141929761Y-95367857D01*
X141929761Y-95510714D01*
X141882142Y-95605952D01*
X141834523Y-95653571D01*
X141739285Y-95701190D01*
X141358333Y-95701190D01*
X142215476Y-95177380D02*
X142548809Y-96177380D01*
X142882142Y-95177380D01*
X143739285Y-96177380D02*
X143167857Y-96177380D01*
X143453571Y-96177380D02*
X143453571Y-95177380D01*
X143358333Y-95320238D01*
X143263095Y-95415476D01*
X143167857Y-95463095D01*
X138357142Y-76107142D02*
X138309523Y-76154761D01*
X138166666Y-76202380D01*
X138071428Y-76202380D01*
X137928571Y-76154761D01*
X137833333Y-76059523D01*
X137785714Y-75964285D01*
X137738095Y-75773809D01*
X137738095Y-75630952D01*
X137785714Y-75440476D01*
X137833333Y-75345238D01*
X137928571Y-75250000D01*
X138071428Y-75202380D01*
X138166666Y-75202380D01*
X138309523Y-75250000D01*
X138357142Y-75297619D01*
X139309523Y-76202380D02*
X138738095Y-76202380D01*
X139023809Y-76202380D02*
X139023809Y-75202380D01*
X138928571Y-75345238D01*
X138833333Y-75440476D01*
X138738095Y-75488095D01*
X139928571Y-75202380D02*
X140023809Y-75202380D01*
X140119047Y-75250000D01*
X140166666Y-75297619D01*
X140214285Y-75392857D01*
X140261904Y-75583333D01*
X140261904Y-75821428D01*
X140214285Y-76011904D01*
X140166666Y-76107142D01*
X140119047Y-76154761D01*
X140023809Y-76202380D01*
X139928571Y-76202380D01*
X139833333Y-76154761D01*
X139785714Y-76107142D01*
X139738095Y-76011904D01*
X139690476Y-75821428D01*
X139690476Y-75583333D01*
X139738095Y-75392857D01*
X139785714Y-75297619D01*
X139833333Y-75250000D01*
X139928571Y-75202380D01*
X121987195Y-80701734D02*
X121987195Y-81512214D01*
X122034870Y-81607564D01*
X122082546Y-81655239D01*
X122177896Y-81702915D01*
X122368597Y-81702915D01*
X122463948Y-81655239D01*
X122511623Y-81607564D01*
X122559298Y-81512214D01*
X122559298Y-80701734D01*
X122988376Y-80797084D02*
X123036051Y-80749409D01*
X123131402Y-80701734D01*
X123369778Y-80701734D01*
X123465129Y-80749409D01*
X123512804Y-80797084D01*
X123560479Y-80892435D01*
X123560479Y-80987785D01*
X123512804Y-81130811D01*
X122940701Y-81702915D01*
X123560479Y-81702915D01*
X152082142Y-84882142D02*
X152034523Y-84929761D01*
X151891666Y-84977380D01*
X151796428Y-84977380D01*
X151653571Y-84929761D01*
X151558333Y-84834523D01*
X151510714Y-84739285D01*
X151463095Y-84548809D01*
X151463095Y-84405952D01*
X151510714Y-84215476D01*
X151558333Y-84120238D01*
X151653571Y-84025000D01*
X151796428Y-83977380D01*
X151891666Y-83977380D01*
X152034523Y-84025000D01*
X152082142Y-84072619D01*
X153034523Y-84977380D02*
X152463095Y-84977380D01*
X152748809Y-84977380D02*
X152748809Y-83977380D01*
X152653571Y-84120238D01*
X152558333Y-84215476D01*
X152463095Y-84263095D01*
X153891666Y-83977380D02*
X153701190Y-83977380D01*
X153605952Y-84025000D01*
X153558333Y-84072619D01*
X153463095Y-84215476D01*
X153415476Y-84405952D01*
X153415476Y-84786904D01*
X153463095Y-84882142D01*
X153510714Y-84929761D01*
X153605952Y-84977380D01*
X153796428Y-84977380D01*
X153891666Y-84929761D01*
X153939285Y-84882142D01*
X153986904Y-84786904D01*
X153986904Y-84548809D01*
X153939285Y-84453571D01*
X153891666Y-84405952D01*
X153796428Y-84358333D01*
X153605952Y-84358333D01*
X153510714Y-84405952D01*
X153463095Y-84453571D01*
X153415476Y-84548809D01*
X138501904Y-89562380D02*
X138501904Y-88562380D01*
X138740000Y-88562380D01*
X138882857Y-88610000D01*
X138978095Y-88705238D01*
X139025714Y-88800476D01*
X139073333Y-88990952D01*
X139073333Y-89133809D01*
X139025714Y-89324285D01*
X138978095Y-89419523D01*
X138882857Y-89514761D01*
X138740000Y-89562380D01*
X138501904Y-89562380D01*
X139930476Y-88562380D02*
X139740000Y-88562380D01*
X139644761Y-88610000D01*
X139597142Y-88657619D01*
X139501904Y-88800476D01*
X139454285Y-88990952D01*
X139454285Y-89371904D01*
X139501904Y-89467142D01*
X139549523Y-89514761D01*
X139644761Y-89562380D01*
X139835238Y-89562380D01*
X139930476Y-89514761D01*
X139978095Y-89467142D01*
X140025714Y-89371904D01*
X140025714Y-89133809D01*
X139978095Y-89038571D01*
X139930476Y-88990952D01*
X139835238Y-88943333D01*
X139644761Y-88943333D01*
X139549523Y-88990952D01*
X139501904Y-89038571D01*
X139454285Y-89133809D01*
X173607142Y-84607142D02*
X173559523Y-84654761D01*
X173416666Y-84702380D01*
X173321428Y-84702380D01*
X173178571Y-84654761D01*
X173083333Y-84559523D01*
X173035714Y-84464285D01*
X172988095Y-84273809D01*
X172988095Y-84130952D01*
X173035714Y-83940476D01*
X173083333Y-83845238D01*
X173178571Y-83750000D01*
X173321428Y-83702380D01*
X173416666Y-83702380D01*
X173559523Y-83750000D01*
X173607142Y-83797619D01*
X173988095Y-83797619D02*
X174035714Y-83750000D01*
X174130952Y-83702380D01*
X174369047Y-83702380D01*
X174464285Y-83750000D01*
X174511904Y-83797619D01*
X174559523Y-83892857D01*
X174559523Y-83988095D01*
X174511904Y-84130952D01*
X173940476Y-84702380D01*
X174559523Y-84702380D01*
X175178571Y-83702380D02*
X175273809Y-83702380D01*
X175369047Y-83750000D01*
X175416666Y-83797619D01*
X175464285Y-83892857D01*
X175511904Y-84083333D01*
X175511904Y-84321428D01*
X175464285Y-84511904D01*
X175416666Y-84607142D01*
X175369047Y-84654761D01*
X175273809Y-84702380D01*
X175178571Y-84702380D01*
X175083333Y-84654761D01*
X175035714Y-84607142D01*
X174988095Y-84511904D01*
X174940476Y-84321428D01*
X174940476Y-84083333D01*
X174988095Y-83892857D01*
X175035714Y-83797619D01*
X175083333Y-83750000D01*
X175178571Y-83702380D01*
X194985833Y-89622142D02*
X194938214Y-89669761D01*
X194795357Y-89717380D01*
X194700119Y-89717380D01*
X194557261Y-89669761D01*
X194462023Y-89574523D01*
X194414404Y-89479285D01*
X194366785Y-89288809D01*
X194366785Y-89145952D01*
X194414404Y-88955476D01*
X194462023Y-88860238D01*
X194557261Y-88765000D01*
X194700119Y-88717380D01*
X194795357Y-88717380D01*
X194938214Y-88765000D01*
X194985833Y-88812619D01*
X195842976Y-88717380D02*
X195652500Y-88717380D01*
X195557261Y-88765000D01*
X195509642Y-88812619D01*
X195414404Y-88955476D01*
X195366785Y-89145952D01*
X195366785Y-89526904D01*
X195414404Y-89622142D01*
X195462023Y-89669761D01*
X195557261Y-89717380D01*
X195747738Y-89717380D01*
X195842976Y-89669761D01*
X195890595Y-89622142D01*
X195938214Y-89526904D01*
X195938214Y-89288809D01*
X195890595Y-89193571D01*
X195842976Y-89145952D01*
X195747738Y-89098333D01*
X195557261Y-89098333D01*
X195462023Y-89145952D01*
X195414404Y-89193571D01*
X195366785Y-89288809D01*
D12*
X161339264Y-75820600D02*
X160885136Y-75820600D01*
X161339264Y-77290600D02*
X160885136Y-77290600D01*
X201625200Y-97392800D02*
X201625200Y-94732800D01*
X199025200Y-97392800D02*
X199025200Y-96062800D01*
X200355200Y-97392800D02*
X199025200Y-97392800D01*
X201625200Y-94732800D02*
X211845200Y-94732800D01*
X201625200Y-97392800D02*
X211845200Y-97392800D01*
X211845200Y-97392800D02*
X211845200Y-94732800D01*
X108595000Y-78105000D02*
X108595000Y-88385000D01*
X114996000Y-78105000D02*
X114996000Y-88385000D01*
X117956000Y-78105000D02*
X117956000Y-88385000D01*
X108535000Y-77865000D02*
X107795000Y-77865000D01*
X110095000Y-78105000D02*
X110095000Y-88385000D01*
X107795000Y-77865000D02*
X107795000Y-78365000D01*
X113970000Y-86855000D02*
X113934000Y-86820000D01*
X108035000Y-78105000D02*
X108035000Y-88385000D01*
X117956000Y-78105000D02*
X108035000Y-78105000D01*
X117956000Y-88385000D02*
X108035000Y-88385000D01*
X113764000Y-87060000D02*
X113718000Y-87013000D01*
X111456000Y-84751000D02*
X111421000Y-84716000D01*
X111672000Y-84558000D02*
X111626000Y-84511000D01*
X113379000Y-79170000D02*
G75*
G03*
X112011958Y-79169573I-684001J-1534993D01*
G01*
X112011000Y-82240000D02*
G75*
G03*
X113378042Y-82240427I684001J1534993D01*
G01*
X111160000Y-80021000D02*
G75*
G03*
X111014747Y-80733805I1535001J-683999D01*
G01*
X114230000Y-81389000D02*
G75*
G03*
X114230427Y-80021958I-1534993J684001D01*
G01*
X111015000Y-80705000D02*
G75*
G03*
X111160244Y-81388318I1679992J-1D01*
G01*
X114375000Y-85785000D02*
G75*
G03*
X114375000Y-85785000I-1680000J0D01*
G01*
X166245000Y-91934420D02*
X166245000Y-92215580D01*
X165225000Y-91934420D02*
X165225000Y-92215580D01*
X166330000Y-81480000D02*
X166805000Y-81480000D01*
X159585000Y-88700000D02*
X159585000Y-88225000D01*
X160060000Y-88700000D02*
X159585000Y-88700000D01*
X166805000Y-88700000D02*
X166805000Y-88225000D01*
X166330000Y-88700000D02*
X166805000Y-88700000D01*
X160060000Y-81480000D02*
X159585000Y-81480000D01*
X166805000Y-81480000D02*
X166805000Y-81955000D01*
X197967500Y-66675580D02*
X197967500Y-66394420D01*
X198987500Y-66675580D02*
X198987500Y-66394420D01*
X143866780Y-73912000D02*
X143585620Y-73912000D01*
X143866780Y-74932000D02*
X143585620Y-74932000D01*
X132516252Y-86255000D02*
X131993748Y-86255000D01*
X132516252Y-87725000D02*
X131993748Y-87725000D01*
X128263748Y-86940000D02*
X128786252Y-86940000D01*
X128263748Y-88410000D02*
X128786252Y-88410000D01*
X199177500Y-85440000D02*
X199977500Y-85440000D01*
X199427500Y-88390000D02*
X204527500Y-88390000D01*
X199177500Y-86240000D02*
X199177500Y-85440000D01*
X204527500Y-88390000D02*
X204527500Y-85690000D01*
X204527500Y-85690000D02*
X199427500Y-85690000D01*
X199427500Y-85690000D02*
X199427500Y-88390000D01*
X121811252Y-96835000D02*
X121288748Y-96835000D01*
X121811252Y-95365000D02*
X121288748Y-95365000D01*
X110375000Y-41125000D02*
X109325000Y-41125000D01*
X105225000Y-43875000D02*
X105225000Y-59475000D01*
X180175000Y-68525000D02*
X181225000Y-68525000D01*
X110375000Y-38275000D02*
X110375000Y-41125000D01*
X181225000Y-68525000D02*
X181225000Y-41125000D01*
X151475000Y-70375000D02*
X153075000Y-70375000D01*
X181225000Y-41125000D02*
X180175000Y-41125000D01*
X115175000Y-41125000D02*
X115175000Y-38275000D01*
X109325000Y-60875000D02*
X109325000Y-68525000D01*
X151475000Y-70375000D02*
X152275000Y-68975000D01*
X115175000Y-71375000D02*
X115175000Y-68525000D01*
X175375000Y-38275000D02*
X175375000Y-41125000D01*
X110375000Y-68525000D02*
X110375000Y-71375000D01*
X115175000Y-68525000D02*
X175375000Y-68525000D01*
X109325000Y-42375000D02*
X105225000Y-43875000D01*
X180175000Y-41125000D02*
X180175000Y-38275000D01*
X109325000Y-41125000D02*
X109325000Y-42375000D01*
X175375000Y-68525000D02*
X175375000Y-71375000D01*
X180175000Y-71375000D02*
X180175000Y-68525000D01*
X109325000Y-68525000D02*
X110375000Y-68525000D01*
X175375000Y-41125000D02*
X115175000Y-41125000D01*
X152275000Y-68975000D02*
X153075000Y-70375000D01*
X105225000Y-59475000D02*
X109325000Y-60875000D01*
X110375000Y-71375000D02*
G75*
G03*
X115175000Y-71375000I2400000J0D01*
G01*
X115175000Y-38275000D02*
G75*
G03*
X110375000Y-38275000I-2400000J0D01*
G01*
X180175000Y-38275000D02*
G75*
G03*
X175375000Y-38275000I-2400000J0D01*
G01*
X175375000Y-71375000D02*
G75*
G03*
X180175000Y-71375000I2400000J0D01*
G01*
X123085000Y-87965000D02*
X120400000Y-87965000D01*
X123085000Y-89885000D02*
X123085000Y-87965000D01*
X120400000Y-89885000D02*
X123085000Y-89885000D01*
X195427500Y-66675580D02*
X195427500Y-66394420D01*
X196447500Y-66675580D02*
X196447500Y-66394420D01*
X128610000Y-97600000D02*
X128610000Y-97756000D01*
X128610000Y-95284000D02*
X128610000Y-95440000D01*
X128610000Y-97755516D02*
G75*
G03*
X131842335Y-97598608I1560000J1235517D01*
G01*
X131842335Y-95441392D02*
G75*
G03*
X128610000Y-95284484I-1672335J-1078609D01*
G01*
X131211130Y-95440163D02*
G75*
G03*
X129129039Y-95440000I-1041130J-1079837D01*
G01*
X129129039Y-97600000D02*
G75*
G03*
X131211130Y-97599837I1040961J1080000D01*
G01*
X201425436Y-90705000D02*
X201879564Y-90705000D01*
X201425436Y-92175000D02*
X201879564Y-92175000D01*
X196200436Y-92275000D02*
X196654564Y-92275000D01*
X196200436Y-90805000D02*
X196654564Y-90805000D01*
X184293200Y-78994000D02*
X184293200Y-68774000D01*
X186953200Y-68774000D02*
X184293200Y-68774000D01*
X186953200Y-81594000D02*
X185623200Y-81594000D01*
X186953200Y-80264000D02*
X186953200Y-81594000D01*
X186953200Y-78994000D02*
X184293200Y-78994000D01*
X186953200Y-78994000D02*
X186953200Y-68774000D01*
X200372500Y-65325000D02*
X200372500Y-68025000D01*
X205472500Y-65325000D02*
X200372500Y-65325000D01*
X200372500Y-68025000D02*
X205472500Y-68025000D01*
X200122500Y-65875000D02*
X200122500Y-65075000D01*
X205472500Y-68025000D02*
X205472500Y-65325000D01*
X200122500Y-65075000D02*
X200922500Y-65075000D01*
X161000000Y-91365000D02*
X156500000Y-91365000D01*
X155250000Y-93865000D02*
X155250000Y-95365000D01*
X156500000Y-97865000D02*
X161000000Y-97865000D01*
X162250000Y-95365000D02*
X162250000Y-93865000D01*
X205442500Y-87167064D02*
X205442500Y-86712936D01*
X206912500Y-87167064D02*
X206912500Y-86712936D01*
X155475000Y-80271252D02*
X155475000Y-79748748D01*
X156945000Y-80271252D02*
X156945000Y-79748748D01*
X140107936Y-88365000D02*
X140562064Y-88365000D01*
X140107936Y-86895000D02*
X140562064Y-86895000D01*
X202060436Y-72490000D02*
X202514564Y-72490000D01*
X202060436Y-71020000D02*
X202514564Y-71020000D01*
X128304420Y-91560000D02*
X128585580Y-91560000D01*
X128304420Y-92580000D02*
X128585580Y-92580000D01*
X149365580Y-88775000D02*
X149084420Y-88775000D01*
X149365580Y-87755000D02*
X149084420Y-87755000D01*
X168346600Y-74964200D02*
X158126600Y-74964200D01*
X158126600Y-72304200D02*
X158126600Y-74964200D01*
X170946600Y-72304200D02*
X170946600Y-73634200D01*
X169616600Y-72304200D02*
X170946600Y-72304200D01*
X168346600Y-72304200D02*
X158126600Y-72304200D01*
X168346600Y-72304200D02*
X168346600Y-74964200D01*
X206632500Y-66902064D02*
X206632500Y-66447936D01*
X208102500Y-66902064D02*
X208102500Y-66447936D01*
X196345436Y-71020000D02*
X196799564Y-71020000D01*
X196345436Y-72490000D02*
X196799564Y-72490000D01*
X156097500Y-88502258D02*
X156097500Y-88027742D01*
X155052500Y-88502258D02*
X155052500Y-88027742D01*
X150825000Y-82455000D02*
X147625000Y-82455000D01*
X147625000Y-82455000D02*
X147625000Y-86455000D01*
X206804564Y-90730000D02*
X206350436Y-90730000D01*
X206804564Y-92200000D02*
X206350436Y-92200000D01*
X197292500Y-86955580D02*
X197292500Y-86674420D01*
X198312500Y-86955580D02*
X198312500Y-86674420D01*
X200558400Y-77733200D02*
X199228400Y-77733200D01*
X201828400Y-77733200D02*
X212048400Y-77733200D01*
X212048400Y-77733200D02*
X212048400Y-75073200D01*
X201828400Y-75073200D02*
X212048400Y-75073200D01*
X201828400Y-77733200D02*
X201828400Y-75073200D01*
X199228400Y-77733200D02*
X199228400Y-76403200D01*
X169806252Y-91835000D02*
X169283748Y-91835000D01*
X169806252Y-90365000D02*
X169283748Y-90365000D01*
X169715580Y-94885000D02*
X169434420Y-94885000D01*
X169715580Y-93865000D02*
X169434420Y-93865000D01*
D13*
X134085000Y-79145000D02*
X140585000Y-79145000D01*
X140585000Y-82145000D02*
X134085000Y-82145000D01*
X134085000Y-82145000D02*
X134085000Y-79145000D01*
X140585000Y-79145000D02*
X140585000Y-82145000D01*
D14*
X133779000Y-83820000D02*
G75*
G03*
X133779000Y-83820000I-127000J0D01*
G01*
D12*
X146124600Y-78025364D02*
X146124600Y-77571236D01*
X144654600Y-78025364D02*
X144654600Y-77571236D01*
X135880580Y-97020000D02*
X135599420Y-97020000D01*
X135880580Y-96000000D02*
X135599420Y-96000000D01*
X149177636Y-73534600D02*
X149631764Y-73534600D01*
X149177636Y-75004600D02*
X149631764Y-75004600D01*
X207594564Y-71020000D02*
X207140436Y-71020000D01*
X207594564Y-72490000D02*
X207140436Y-72490000D01*
X149084420Y-79885000D02*
X149365580Y-79885000D01*
X149084420Y-78865000D02*
X149365580Y-78865000D01*
X178095600Y-86969600D02*
X178095600Y-85639600D01*
X178095600Y-98459600D02*
X180755600Y-98459600D01*
X180755600Y-88239600D02*
X180755600Y-98459600D01*
X178095600Y-85639600D02*
X179425600Y-85639600D01*
X178095600Y-88239600D02*
X178095600Y-98459600D01*
X178095600Y-88239600D02*
X180755600Y-88239600D01*
X152365000Y-77666252D02*
X152365000Y-77143748D01*
X153835000Y-77666252D02*
X153835000Y-77143748D01*
X134895000Y-90572936D02*
X134895000Y-91027064D01*
X133425000Y-90572936D02*
X133425000Y-91027064D01*
X120375000Y-93535000D02*
X123060000Y-93535000D01*
X123060000Y-91615000D02*
X120375000Y-91615000D01*
X123060000Y-93535000D02*
X123060000Y-91615000D01*
X151870000Y-94615000D02*
G75*
G03*
X151870000Y-94615000I-3930000J0D01*
G01*
X138924420Y-73785000D02*
X139205580Y-73785000D01*
X138924420Y-74805000D02*
X139205580Y-74805000D01*
D13*
X130885000Y-79145000D02*
X130885000Y-82145000D01*
X124385000Y-82145000D02*
X124385000Y-79145000D01*
X130885000Y-82145000D02*
X124385000Y-82145000D01*
X124385000Y-79145000D02*
X130885000Y-79145000D01*
D14*
X124079000Y-83820000D02*
G75*
G03*
X124079000Y-83820000I-127000J0D01*
G01*
D12*
X155450000Y-84595580D02*
X155450000Y-84314420D01*
X154430000Y-84595580D02*
X154430000Y-84314420D01*
X137680000Y-90834000D02*
X137680000Y-90990000D01*
X137680000Y-93150000D02*
X137680000Y-93306000D01*
X140281130Y-90990163D02*
G75*
G03*
X138199039Y-90990000I-1041130J-1079837D01*
G01*
X138199039Y-93150000D02*
G75*
G03*
X140281130Y-93149837I1040961J1080000D01*
G01*
X137680000Y-93305516D02*
G75*
G03*
X140912335Y-93148608I1560000J1235517D01*
G01*
X140912335Y-90991392D02*
G75*
G03*
X137680000Y-90834484I-1672335J-1078609D01*
G01*
X172388200Y-83990548D02*
X172388200Y-84513052D01*
X170918200Y-83990548D02*
X170918200Y-84513052D01*
X194767500Y-86980580D02*
X194767500Y-86699420D01*
X195787500Y-86980580D02*
X195787500Y-86699420D01*
%LPC*%
D15*
X162024700Y-76555600D03*
X160199700Y-76555600D03*
D16*
X200355200Y-96062800D03*
D17*
X202895200Y-96062800D03*
X205435200Y-96062800D03*
X207975200Y-96062800D03*
X210515200Y-96062800D03*
D18*
X195757800Y-97612200D03*
D19*
X112695000Y-80705000D03*
D20*
X112695000Y-85785000D03*
D21*
X165735000Y-91300000D03*
X165735000Y-92850000D03*
D22*
X159757500Y-82340000D03*
X159757500Y-82840000D03*
X159757500Y-83340000D03*
X159757500Y-83840000D03*
X159757500Y-84340000D03*
X159757500Y-84840000D03*
X159757500Y-85340000D03*
X159757500Y-85840000D03*
X159757500Y-86340000D03*
X159757500Y-86840000D03*
X159757500Y-87340000D03*
X159757500Y-87840000D03*
D23*
X160445000Y-88527500D03*
X160945000Y-88527500D03*
X161445000Y-88527500D03*
X161945000Y-88527500D03*
X162445000Y-88527500D03*
X162945000Y-88527500D03*
X163445000Y-88527500D03*
X163945000Y-88527500D03*
X164445000Y-88527500D03*
X164945000Y-88527500D03*
X165445000Y-88527500D03*
X165945000Y-88527500D03*
D22*
X166632500Y-87840000D03*
X166632500Y-87340000D03*
X166632500Y-86840000D03*
X166632500Y-86340000D03*
X166632500Y-85840000D03*
X166632500Y-85340000D03*
X166632500Y-84840000D03*
X166632500Y-84340000D03*
X166632500Y-83840000D03*
X166632500Y-83340000D03*
X166632500Y-82840000D03*
X166632500Y-82340000D03*
D23*
X165945000Y-81652500D03*
X165445000Y-81652500D03*
X164945000Y-81652500D03*
X164445000Y-81652500D03*
X163945000Y-81652500D03*
X163445000Y-81652500D03*
X162945000Y-81652500D03*
X162445000Y-81652500D03*
X161945000Y-81652500D03*
X161445000Y-81652500D03*
X160945000Y-81652500D03*
X160445000Y-81652500D03*
D24*
X163195000Y-85090000D03*
D25*
X198477500Y-67310000D03*
X198477500Y-65760000D03*
D26*
X144501200Y-74422000D03*
X142951200Y-74422000D03*
D27*
X133205000Y-86990000D03*
X131305000Y-86990000D03*
D28*
X127575000Y-87675000D03*
X129475000Y-87675000D03*
D29*
X200377500Y-86240000D03*
D30*
X200237500Y-86365000D03*
D29*
X201177500Y-86240000D03*
X201977500Y-86240000D03*
X202777500Y-86240000D03*
X203577500Y-86240000D03*
X203577500Y-87040000D03*
X203577500Y-87840000D03*
X202777500Y-87840000D03*
X201977500Y-87840000D03*
X201177500Y-87840000D03*
X200377500Y-87840000D03*
X200377500Y-87040000D03*
D27*
X122500000Y-96100000D03*
X120600000Y-96100000D03*
D31*
X112775000Y-38275000D03*
X112775000Y-71375000D03*
X177775000Y-38275000D03*
X177775000Y-71375000D03*
D32*
X152275000Y-67475000D03*
D33*
X150275000Y-67475000D03*
X148275000Y-67475000D03*
X146275000Y-67475000D03*
X144275000Y-67475000D03*
X142275000Y-67475000D03*
X140275000Y-67475000D03*
X138275000Y-67475000D03*
D34*
X106725000Y-55825000D03*
X106725000Y-47325000D03*
D35*
X122337500Y-88925000D03*
X120462500Y-88925000D03*
D25*
X195937500Y-67310000D03*
X195937500Y-65760000D03*
D36*
X128900000Y-96520000D03*
D37*
X131440000Y-96520000D03*
D38*
X106125000Y-38275000D03*
D39*
X200740000Y-91440000D03*
X202565000Y-91440000D03*
X195515000Y-91540000D03*
X197340000Y-91540000D03*
D16*
X185623200Y-80264000D03*
D17*
X185623200Y-77724000D03*
X185623200Y-75184000D03*
X185623200Y-72644000D03*
X185623200Y-70104000D03*
D30*
X201182500Y-66000000D03*
D29*
X201322500Y-65875000D03*
X202122500Y-65875000D03*
X202922500Y-65875000D03*
X203722500Y-65875000D03*
X204522500Y-65875000D03*
X204522500Y-66675000D03*
X204522500Y-67475000D03*
X203722500Y-67475000D03*
X202922500Y-67475000D03*
X202122500Y-67475000D03*
X201322500Y-67475000D03*
X201322500Y-66675000D03*
D38*
X187000000Y-95500000D03*
D40*
X162000000Y-92365000D03*
X155500000Y-92365000D03*
X155500000Y-96865000D03*
X162000000Y-96865000D03*
D41*
X206177500Y-87852500D03*
X206177500Y-86027500D03*
D42*
X156210000Y-80960000D03*
X156210000Y-79060000D03*
D39*
X139422500Y-87630000D03*
X141247500Y-87630000D03*
D18*
X210867500Y-84500000D03*
D39*
X201375000Y-71755000D03*
X203200000Y-71755000D03*
D43*
X127670000Y-92070000D03*
X129220000Y-92070000D03*
D44*
X120165000Y-77465000D03*
X121135000Y-77465000D03*
D26*
X150000000Y-88265000D03*
X148450000Y-88265000D03*
D16*
X169616600Y-73634200D03*
D17*
X167076600Y-73634200D03*
X164536600Y-73634200D03*
X161996600Y-73634200D03*
X159456600Y-73634200D03*
D41*
X207367500Y-67587500D03*
X207367500Y-65762500D03*
D38*
X106680000Y-94615000D03*
D39*
X195660000Y-71755000D03*
X197485000Y-71755000D03*
D45*
X155575000Y-89090000D03*
X155575000Y-87440000D03*
D46*
X148425000Y-83355000D03*
X148425000Y-85555000D03*
X150025000Y-85555000D03*
X150025000Y-83355000D03*
D15*
X207490000Y-91465000D03*
X205665000Y-91465000D03*
D25*
X197802500Y-87590000D03*
X197802500Y-86040000D03*
D16*
X200558400Y-76403200D03*
D17*
X203098400Y-76403200D03*
X205638400Y-76403200D03*
X208178400Y-76403200D03*
X210718400Y-76403200D03*
D27*
X170495000Y-91100000D03*
X168595000Y-91100000D03*
D38*
X187000000Y-37975000D03*
D26*
X170350000Y-94375000D03*
X168800000Y-94375000D03*
D47*
X135035000Y-83545000D03*
X137335000Y-83545000D03*
X139635000Y-83545000D03*
D48*
X137335000Y-77745000D03*
D41*
X145389600Y-78710800D03*
X145389600Y-76885800D03*
D26*
X136515000Y-96510000D03*
X134965000Y-96510000D03*
D39*
X148492200Y-74269600D03*
X150317200Y-74269600D03*
D18*
X211177500Y-64770000D03*
D15*
X208280000Y-71755000D03*
X206455000Y-71755000D03*
D43*
X148450000Y-79375000D03*
X150000000Y-79375000D03*
D16*
X179425600Y-86969600D03*
D17*
X179425600Y-89509600D03*
X179425600Y-92049600D03*
X179425600Y-94589600D03*
X179425600Y-97129600D03*
D42*
X153100000Y-78355000D03*
X153100000Y-76455000D03*
D49*
X134160000Y-89887500D03*
X134160000Y-91712500D03*
D35*
X122312500Y-92575000D03*
X120437500Y-92575000D03*
D50*
X150480000Y-94615000D03*
X147940000Y-97155000D03*
X145400000Y-94615000D03*
D18*
X196200000Y-78025000D03*
D43*
X138290000Y-74295000D03*
X139840000Y-74295000D03*
D47*
X125335000Y-83545000D03*
X127635000Y-83545000D03*
X129935000Y-83545000D03*
D48*
X127635000Y-77745000D03*
D25*
X154940000Y-85230000D03*
X154940000Y-83680000D03*
D36*
X137970000Y-92070000D03*
D37*
X140510000Y-92070000D03*
D51*
X171653200Y-83301800D03*
X171653200Y-85201800D03*
D25*
X195277500Y-87615000D03*
X195277500Y-86065000D03*
M02*
