G04 #@! TF.GenerationSoftware,KiCad,Pcbnew,(6.0.1)*
G04 #@! TF.CreationDate,2023-06-26T12:25:45-03:00*
G04 #@! TF.ProjectId,SRR-SCHEMATIC,5352522d-5343-4484-954d-415449432e6b,rev?*
G04 #@! TF.SameCoordinates,Original*
G04 #@! TF.FileFunction,Legend,Bot*
G04 #@! TF.FilePolarity,Positive*
%FSLAX46Y46*%
G04 Gerber Fmt 4.6, Leading zero omitted, Abs format (unit mm)*
G04 Created by KiCad (PCBNEW (6.0.1)) date 2023-06-26 12:25:45*
%MOMM*%
%LPD*%
G01*
G04 APERTURE LIST*
%ADD10R,1.700000X1.700000*%
%ADD11O,1.700000X1.700000*%
%ADD12C,2.200000*%
%ADD13R,2.600000X2.600000*%
%ADD14C,2.600000*%
%ADD15C,2.500000*%
%ADD16R,1.600000X1.600000*%
%ADD17C,1.600000*%
%ADD18O,1.800000X3.400000*%
%ADD19R,1.800000X1.800000*%
%ADD20C,1.800000*%
%ADD21C,3.200000*%
%ADD22C,2.000000*%
%ADD23C,1.750000*%
G04 APERTURE END LIST*
%LPC*%
D10*
X200355200Y-96062800D03*
D11*
X202895200Y-96062800D03*
X205435200Y-96062800D03*
X207975200Y-96062800D03*
X210515200Y-96062800D03*
D12*
X195757800Y-97612200D03*
D13*
X112695000Y-80705000D03*
D14*
X112695000Y-85785000D03*
D15*
X112775000Y-38275000D03*
X112775000Y-71375000D03*
X177775000Y-38275000D03*
X177775000Y-71375000D03*
D16*
X152275000Y-67475000D03*
D17*
X150275000Y-67475000D03*
X148275000Y-67475000D03*
X146275000Y-67475000D03*
X144275000Y-67475000D03*
X142275000Y-67475000D03*
X140275000Y-67475000D03*
X138275000Y-67475000D03*
D18*
X106725000Y-55825000D03*
X106725000Y-47325000D03*
D19*
X128900000Y-96520000D03*
D20*
X131440000Y-96520000D03*
D21*
X106125000Y-38275000D03*
D10*
X185623200Y-80264000D03*
D11*
X185623200Y-77724000D03*
X185623200Y-75184000D03*
X185623200Y-72644000D03*
X185623200Y-70104000D03*
D21*
X187000000Y-95500000D03*
D22*
X162000000Y-92365000D03*
X155500000Y-92365000D03*
X155500000Y-96865000D03*
X162000000Y-96865000D03*
D12*
X210867500Y-84500000D03*
D10*
X169616600Y-73634200D03*
D11*
X167076600Y-73634200D03*
X164536600Y-73634200D03*
X161996600Y-73634200D03*
X159456600Y-73634200D03*
D21*
X106680000Y-94615000D03*
D10*
X200558400Y-76403200D03*
D11*
X203098400Y-76403200D03*
X205638400Y-76403200D03*
X208178400Y-76403200D03*
X210718400Y-76403200D03*
D21*
X187000000Y-37975000D03*
D12*
X211177500Y-64770000D03*
D10*
X179425600Y-86969600D03*
D11*
X179425600Y-89509600D03*
X179425600Y-92049600D03*
X179425600Y-94589600D03*
X179425600Y-97129600D03*
D23*
X150480000Y-94615000D03*
X147940000Y-97155000D03*
X145400000Y-94615000D03*
D12*
X196200000Y-78025000D03*
D19*
X137970000Y-92070000D03*
D20*
X140510000Y-92070000D03*
M02*
